<?xml version="1.0" encoding="UTF-8"?>
<svg width="58px" height="46px" viewBox="0 0 58 46" version="1.1" xmlns="http://www.w3.org/2000/svg" xmlns:xlink="http://www.w3.org/1999/xlink">
    <!-- Generator: Sketch 47 (45396) - http://www.bohemiancoding.com/sketch -->
    <title>BTN_mini / default</title>
    <desc>Created with Sketch.</desc>
    <defs></defs>
    <g id="Symbols" stroke="none" stroke-width="1" fill="none" fill-rule="evenodd">
        <g id="BTN_mini-/-default">
            <g id="Group-5" transform="translate(3.000000, 3.000000)">
                <path d="M10.0019284,-2.93710369e-15 L41.6058504,-5.94468051e-15 L41.6058504,-5.32907052e-15 C47.1286979,-6.34355849e-15 51.6058504,4.4771525 51.6058504,10 C51.6058504,10.6585199 51.5408035,11.3154295 51.4116571,11.9611614 L47.4116571,31.9611614 L47.4116571,31.9611614 C46.4768087,36.6354033 42.3726606,40 37.6058504,40 L14.0019284,40 L14.0019284,40 C9.23511821,40 5.13097004,36.6354033 4.19612165,31.9611614 L0.19612165,11.9611614 L0.19612165,11.9611614 C-0.886997856,6.54556382 2.62516952,1.27731275 8.04076706,0.194193243 C8.6864989,0.0650468745 9.34340855,-3.43171672e-15 10.0019284,-3.55271368e-15 Z" id="Rectangle-12" fill="#E20714"></path>
                <g id="Page-1-Copy-6" transform="translate(12.000000, 10.000000)" fill="#FFFFFF">
                    <rect id="Rectangle" x="14.7245519" y="15.38613" width="4.28715696" height="4.28715696" rx="2.14357848"></rect>
                    <path d="M7.36227594,17.5297084 C7.36227594,16.3458427 8.31373502,15.38613 9.50585441,15.38613 L9.50585441,15.38613 C10.6897201,15.38613 11.6494329,16.337589 11.6494329,17.5297084 L11.6494329,17.5297084 C11.6494329,18.7135741 10.6979738,19.6732869 9.50585441,19.6732869 L9.50585441,19.6732869 C8.32198871,19.6732869 7.36227594,18.7218278 7.36227594,17.5297084 L7.36227594,17.5297084 Z" id="Rectangle-Copy"></path>
                    <path d="M1.31001152,2.18724397 C1.66745143,2.18724397 1.93771085,2.33978013 2.16851717,2.62637099 C2.3232302,2.81847725 2.41827268,3.01516675 2.4496933,3.11270375 L2.49185897,3.21974783 L6.11374939,10.9362099 C6.2415646,11.2461652 6.51662694,11.7203776 6.94969561,12.196807 C7.71783712,13.0418582 8.71547556,13.5558698 9.92926207,13.5284666 C10.960139,13.5051929 11.7382794,13.5117377 13.459316,13.5455505 C14.6207674,13.5683693 16.7101219,13.575997 17.3850085,13.575997 C18.5682008,13.575997 19.4865668,13.0445885 20.1247924,12.1919306 C20.4928199,11.7002525 20.6977485,11.2145933 20.7907965,10.8548946 L22.3722102,6.39552289 C22.4083784,6.2704606 22.4256139,6.1922249 22.4417719,6.09451621 C22.4853366,5.83107697 22.4996573,5.55789155 22.4642156,5.28103363 C22.3551509,4.42905996 21.7750014,3.79321139 20.7930984,3.79321139 C20.1376482,3.79321139 20.1376482,3.79321139 18.6804856,3.79321139 C16.9560855,3.79321139 16.9560855,3.79321139 14.964448,3.79321139 C13.8498075,3.79321139 13.8498075,3.79321139 12.7820128,3.79321139 C9.87527458,3.79321139 9.87527458,3.79321139 9.04529058,3.79321139 L9.95035705,5.60334433 C10.780341,5.60334433 9.87527458,5.60334433 12.7820128,5.60334433 C13.8498075,5.60334433 13.8498075,5.60334433 14.964448,5.60334433 C16.9560855,5.60334433 16.9560855,5.60334433 18.6804856,5.60334433 C20.1376482,5.60334433 20.1376482,5.60334433 20.7930984,5.60334433 C20.7688849,5.60334433 20.6661584,5.49075523 20.6687347,5.51088066 C20.6786871,5.58862509 20.6731052,5.69510564 20.6558934,5.79918724 C20.6496583,5.83689114 20.6445007,5.86030261 20.6439289,5.86246697 L19.0613374,10.3263439 C18.9992933,10.5525424 18.8809955,10.8328958 18.6756525,11.1072303 C18.3582607,11.5312601 17.9528243,11.7658641 17.3850085,11.7658641 C16.7257937,11.7658641 14.6446344,11.7583559 13.4948724,11.7357668 C11.7490889,11.7014678 10.952607,11.6947687 9.88840574,11.7187948 C9.25168934,11.7331697 8.73023933,11.4645039 8.28915405,10.9792552 C8.01568009,10.6783998 7.83988581,10.3753274 7.768826,10.2043324 L4.13046818,2.45063073 L4.17263385,2.5576748 C4.07898246,2.26695886 3.89261294,1.88126895 3.57830595,1.49099579 C3.02741225,0.806954286 2.26582765,0.377111029 1.31001152,0.377111029 C-0.878748543,0.377111029 0.687896019,0.377111029 0,0.377111029 L0,2.18724397 C1.15812782,2.20609952 -0.878748543,2.18724397 1.31001152,2.18724397 Z" id="Path-2" fill-rule="nonzero"></path>
                </g>
            </g>
        </g>
    </g>
</svg>