<?xml version="1.0" encoding="UTF-8"?>
<svg width="151px" height="55px" viewBox="0 0 151 55" version="1.1" xmlns="http://www.w3.org/2000/svg" xmlns:xlink="http://www.w3.org/1999/xlink">
    <!-- Generator: Sketch 47 (45396) - http://www.bohemiancoding.com/sketch -->
    <title>Rectangle 12</title>
    <desc>Created with Sketch.</desc>
    <defs></defs>
    <g id="Symbols" stroke="none" stroke-width="1" fill="none" fill-rule="evenodd">
        <g id="BTM-/-hover" transform="translate(-2.000000, 0.000000)" fill="#E95A0C">
            <path d="M11.9821272,0 L142.978848,0 L142.978848,-3.55271368e-15 C148.501696,-4.56724431e-15 152.978848,4.4771525 152.978848,10 C152.978848,10.599916 152.924864,11.1986151 152.817548,11.7888544 L146.453911,46.7888544 L146.453911,46.7888544 C145.589383,51.5437613 141.448074,55 136.615212,55 L18.3457635,55 L18.3457635,55 C13.5129021,55 9.37159297,51.5437613 8.50706443,46.7888544 L2.14342807,11.7888544 L2.14342807,11.7888544 C1.15547107,6.35509091 4.75950932,1.14925789 10.1932728,0.161300899 C10.7835121,0.0539846616 11.3822112,1.88655962e-15 11.9821272,1.77635684e-15 Z" id="Rectangle-12"></path>
        </g>
    </g>
</svg>