<?xml version="1.0" encoding="UTF-8"?>
<svg width="125px" height="40px" viewBox="0 0 125 40" version="1.1" xmlns="http://www.w3.org/2000/svg" xmlns:xlink="http://www.w3.org/1999/xlink">
    <!-- Generator: sketchtool 47 (45396) - http://www.bohemiancoding.com/sketch -->
    <title>7A73EB1C-B1FC-47CF-8DB7-D1E070100907</title>
    <desc>Created with sketchtool.</desc>
    <defs></defs>
    <g id="Page-1" stroke="none" stroke-width="1" fill="none" fill-rule="evenodd">
        <g id="f_main-4" transform="translate(-1166.000000, -2009.000000)" fill="#E20714">
            <g id="Email-rassilka-Copy" transform="translate(0.000000, 1971.000000)">
                <g id="BTN-Copy-6" transform="translate(1166.000000, 38.000000)">
                    <g id="Group">
                        <path d="M8.75843122,0 L116.307429,0 L116.307429,0 C120.725707,-8.11624501e-16 124.307429,3.581722 124.307429,8 C124.307429,8.52681588 124.255391,9.05234361 124.152074,9.56892908 L119.352074,33.5689291 L119.352074,33.5689291 C118.604195,37.3083227 115.320877,40 111.507429,40 L13.5584312,40 L13.5584312,40 C9.74498306,40 6.46166453,37.3083227 5.71378582,33.5689291 L0.913785816,9.56892908 L0.913785816,9.56892908 C0.0472902112,5.23645106 2.85702412,1.0218502 7.18950214,0.155354594 C7.70608762,0.0520374996 8.23161534,1.87313135e-15 8.75843122,1.77635684e-15 Z" id="Rectangle-12"></path>
                    </g>
                </g>
            </g>
        </g>
    </g>
</svg>