<?xml version="1.0" encoding="utf-8"?>
<!-- Generator: Adobe Illustrator 23.1.0, SVG Export Plug-In . SVG Version: 6.00 Build 0)  -->
<svg version="1.1" id="Layer_1" xmlns="http://www.w3.org/2000/svg" xmlns:xlink="http://www.w3.org/1999/xlink" x="0px" y="0px"
	 viewBox="0 0 58.41 50.58" style="enable-background:new 0 0 58.41 50.58;" xml:space="preserve">
<style type="text/css">
	.st0{fill:#F6A600;}
</style>
<g>
	<path class="st0" d="M45.33,34.08h-20c-5.18,0-7.68-4.9-7.79-5.11L7.52,7.94c-2.3-4.59-6.77-3.8-6.82-3.8L0,0.1
		c2.58-0.43,8.22,0.29,11.12,6.08l10.02,21.03l0,0c0,0,1.52,2.86,4.19,2.86h20c0.04,0,4.46-0.1,5.06-2.48l0.03-0.1l3.98-12.92
		c0.03-0.17,0.06-0.7-0.17-0.99c-0.26-0.32-0.95-0.5-1.89-0.5l-26.25,0.01l-2.21-4.11l28.49,0.1c0,0,0,0,0,0
		c2.25,0,3.95,0.69,5.01,2.05c1.47,1.88,0.95,4.18,0.89,4.44l-0.03,0.1l-3.99,12.95C53.14,32.92,48.13,34.08,45.33,34.08z"/>
</g>
<circle class="st0" cx="25.83" cy="45.58" r="5"/>
<circle class="st0" cx="45.83" cy="45.58" r="5"/>
</svg>
