<?xml version="1.0" encoding="utf-8"?>
<!-- Generator: Adobe Illustrator 23.1.0, SVG Export Plug-In . SVG Version: 6.00 Build 0)  -->
<svg version="1.1" id="Layer_2" xmlns="http://www.w3.org/2000/svg" xmlns:xlink="http://www.w3.org/1999/xlink" x="0px" y="0px"
	 viewBox="0 0 28.81 28.81" style="enable-background:new 0 0 28.81 28.81;" xml:space="preserve">
<style type="text/css">
	.st0{fill:#F04923;}
</style>
<path class="st0" d="M17.23,14.4L28.22,3.41c0.78-0.78,0.78-2.05,0-2.83c-0.78-0.78-2.05-0.78-2.83,0L14.4,11.57L3.41,0.59
	c-0.78-0.78-2.05-0.78-2.83,0c-0.78,0.78-0.78,2.05,0,2.83L11.57,14.4L0.59,25.39c-0.78,0.78-0.78,2.05,0,2.83
	c0.39,0.39,0.9,0.59,1.41,0.59s1.02-0.2,1.41-0.59L14.4,17.23l10.99,10.99c0.39,0.39,0.9,0.59,1.41,0.59s1.02-0.2,1.41-0.59
	c0.78-0.78,0.78-2.05,0-2.83L17.23,14.4z"/>
</svg>
