<?xml version="1.0" encoding="utf-8"?>
<!-- Generator: Adobe Illustrator 23.1.0, SVG Export Plug-In . SVG Version: 6.00 Build 0)  -->
<svg version="1.1" id="Layer_1" xmlns="http://www.w3.org/2000/svg" xmlns:xlink="http://www.w3.org/1999/xlink" x="0px" y="0px"
	 viewBox="0 0 15.8 17.6" style="enable-background:new 0 0 15.8 17.6;" xml:space="preserve">
<style type="text/css">
	.st0{fill:#FFFFFF;}
</style>
<g>
	<path class="st0" d="M2.9,3.2V0H1.4v3.2C0.6,3.5,0,4.3,0,5.2s0.6,1.7,1.4,2v10.3h1.5V7.2c0.8-0.3,1.4-1.1,1.4-2S3.7,3.5,2.9,3.2z"
		/>
	<path class="st0" d="M8.4,10.4V0.1H6.9v10.3c-0.8,0.3-1.4,1.1-1.4,2c0,0.9,0.6,1.7,1.4,2v3.2h1.5v-3.2c0.8-0.3,1.4-1.1,1.4-2
		C9.8,11.5,9.2,10.7,8.4,10.4z"/>
	<path class="st0" d="M15.8,2.5c0-1.2-1-2.1-2.1-2.1c-1.2,0-2.1,1-2.1,2.1c0,0.9,0.6,1.7,1.4,2v13.1h1.5V4.4
		C15.2,4.1,15.8,3.4,15.8,2.5z"/>
</g>
</svg>
