<?xml version="1.0" encoding="UTF-8"?>
<svg width="90px" height="87px" viewBox="0 0 90 87" version="1.1" xmlns="http://www.w3.org/2000/svg" xmlns:xlink="http://www.w3.org/1999/xlink">
    <!-- Generator: sketchtool 47 (45396) - http://www.bohemiancoding.com/sketch -->
    <title>6DB7AC12-3169-4E16-BE15-85706D83839C</title>
    <desc>Created with sketchtool.</desc>
    <defs>
        <polygon id="path-1" points="0 86.0327 89.578 86.0327 89.578 -0.0003 0 -0.0003"></polygon>
    </defs>
    <g id="Symbols" stroke="none" stroke-width="1" fill="none" fill-rule="evenodd">
        <g id="perspectiva" transform="translate(-50.000000, -3.000000)">
            <g id="Page-1" transform="translate(50.000000, 3.000000)">
                <path d="M27.9465,1.0001 C19.4435,1.0001 12.5495,7.8941 12.5495,16.3961 L12.5495,85.0321 L70.6565,85.0321 L70.6565,10.1771 L80.0805,1.0001 L27.9465,1.0001 Z" id="Stroke-1" stroke="#EC1C24" stroke-width="2" stroke-linecap="round" stroke-linejoin="round"></path>
                <path d="M2.1667,26.9757 L2.1667,50.0367" id="Stroke-3" stroke="#F9A51A" stroke-width="2" stroke-linecap="round" stroke-linejoin="round"></path>
                <path d="M2.1667,19.6232 L2.1667,16.6822" id="Stroke-5" stroke="#F9A51A" stroke-width="2" stroke-linecap="round" stroke-linejoin="round"></path>
                <path d="M79.6667,69.0773 L79.6667,53.0163" id="Stroke-7" stroke="#F9A51A" stroke-width="2" stroke-linecap="round" stroke-linejoin="round"></path>
                <path d="M79.6667,76.4298 L79.6667,79.3708" id="Stroke-9" stroke="#F9A51A" stroke-width="2" stroke-linecap="round" stroke-linejoin="round"></path>
                <path d="M88.5784,10.0773 L70.7554,10.0773 C70.7554,5.0643 74.7454,1.0003 79.6664,1.0003 C84.5884,1.0003 88.5784,5.0643 88.5784,10.0773" id="Fill-11" fill="#FFFFFF"></path>
                <path d="M88.5784,10.0773 L70.7554,10.0773 C70.7554,5.0643 74.7454,1.0003 79.6664,1.0003 C84.5884,1.0003 88.5784,5.0643 88.5784,10.0773 Z" id="Stroke-13" stroke="#EC1C24" stroke-width="2" stroke-linecap="round" stroke-linejoin="round"></path>
                <polygon id="Fill-15" fill="#FFFFFF" points="12.5496 56.8683 16.1186 64.0993 24.0996 65.2603 18.3246 70.8893 19.6876 78.8373 12.5496 75.0843 5.4116 78.8373 6.7746 70.8893 1.0006 65.2603 8.9806 64.0993"></polygon>
                <polygon id="Stroke-17" stroke="#EC1C24" stroke-width="2" stroke-linecap="round" stroke-linejoin="round" points="12.5496 56.8683 16.1186 64.0993 24.0996 65.2603 18.3246 70.8893 19.6876 78.8373 12.5496 75.0843 5.4116 78.8373 6.7746 70.8893 1.0006 65.2603 8.9806 64.0993"></polygon>
                <polygon id="Fill-19" fill="#EC1C24" points="24.6482 35.5978 25.5932 37.5128 27.7062 37.8198 26.1772 39.3098 26.5382 41.4138 24.6482 40.4208 22.7582 41.4138 23.1192 39.3098 21.5902 37.8198 23.7032 37.5128"></polygon>
                <polygon id="Stroke-21" stroke="#EC1C24" stroke-linecap="round" stroke-linejoin="round" points="24.6482 35.5978 25.5932 37.5128 27.7062 37.8198 26.1772 39.3098 26.5382 41.4138 24.6482 40.4208 22.7582 41.4138 23.1192 39.3098 21.5902 37.8198 23.7032 37.5128"></polygon>
                <polygon id="Fill-23" fill="#EC1C24" points="33.4358 35.5978 34.3808 37.5128 36.4938 37.8198 34.9648 39.3098 35.3258 41.4138 33.4358 40.4208 31.5458 41.4138 31.9068 39.3098 30.3778 37.8198 32.4908 37.5128"></polygon>
                <polygon id="Stroke-25" stroke="#EC1C24" stroke-linecap="round" stroke-linejoin="round" points="33.4358 35.5978 34.3808 37.5128 36.4938 37.8198 34.9648 39.3098 35.3258 41.4138 33.4358 40.4208 31.5458 41.4138 31.9068 39.3098 30.3778 37.8198 32.4908 37.5128"></polygon>
                <polygon id="Fill-27" fill="#EC1C24" points="42.2234 35.5978 43.1684 37.5128 45.2814 37.8198 43.7524 39.3098 44.1134 41.4138 42.2234 40.4208 40.3334 41.4138 40.6944 39.3098 39.1654 37.8198 41.2784 37.5128"></polygon>
                <polygon id="Stroke-29" stroke="#EC1C24" stroke-linecap="round" stroke-linejoin="round" points="42.2234 35.5978 43.1684 37.5128 45.2814 37.8198 43.7524 39.3098 44.1134 41.4138 42.2234 40.4208 40.3334 41.4138 40.6944 39.3098 39.1654 37.8198 41.2784 37.5128"></polygon>
                <polygon id="Fill-31" fill="#EC1C24" points="51.0115 35.5978 51.9565 37.5128 54.0695 37.8198 52.5405 39.3098 52.9015 41.4138 51.0115 40.4208 49.1215 41.4138 49.4825 39.3098 47.9535 37.8198 50.0665 37.5128"></polygon>
                <polygon id="Stroke-33" stroke="#EC1C24" stroke-linecap="round" stroke-linejoin="round" points="51.0115 35.5978 51.9565 37.5128 54.0695 37.8198 52.5405 39.3098 52.9015 41.4138 51.0115 40.4208 49.1215 41.4138 49.4825 39.3098 47.9535 37.8198 50.0665 37.5128"></polygon>
                <path d="M21.0667,47.5177 L62.7667,47.5177" id="Stroke-35" stroke="#F9A51A" stroke-width="2" stroke-linecap="round" stroke-linejoin="round"></path>
                <path d="M21.0667,53.8585 L45.3507,53.8585" id="Stroke-37" stroke="#F9A51A" stroke-width="2" stroke-linecap="round" stroke-linejoin="round"></path>
                <path d="M32.9338,62.2745 L53.7668,62.2745" id="Stroke-39" stroke="#F9A51A" stroke-width="2" stroke-linecap="round" stroke-linejoin="round"></path>
                <path d="M32.9338,68.4435 L53.7678,68.4435" id="Stroke-41" stroke="#F9A51A" stroke-width="2" stroke-linecap="round" stroke-linejoin="round"></path>
                <path d="M32.9338,74.879 L44.6008,74.879" id="Stroke-43" stroke="#F9A51A" stroke-width="2" stroke-linecap="round" stroke-linejoin="round"></path>
                <mask id="mask-2" fill="white">
                    <use xlink:href="#path-1"></use>
                </mask>
                <g id="Clip-46"></g>
                <polygon id="Fill-45" fill="#F9A51A" mask="url(#mask-2)" points="21.067 29.5937 62.767 29.5937 62.767 20.2337 21.067 20.2337"></polygon>
                <polygon id="Stroke-47" stroke="#F9A51A" stroke-width="2" stroke-linecap="round" stroke-linejoin="round" mask="url(#mask-2)" points="21.067 29.5937 62.767 29.5937 62.767 20.2337 21.067 20.2337"></polygon>
            </g>
        </g>
    </g>
</svg>