<?xml version="1.0" encoding="utf-8"?>
<!-- Generator: Adobe Illustrator 22.0.0, SVG Export Plug-In . SVG Version: 6.00 Build 0)  -->
<svg version="1.1" id="Layer_1" xmlns="http://www.w3.org/2000/svg" xmlns:xlink="http://www.w3.org/1999/xlink" x="0px" y="0px"
	 viewBox="0 0 244 63" style="enable-background:new 0 0 244 63;" xml:space="preserve">
<style type="text/css">
	.st0{fill:#1D1D1B;}
	.st1{fill:#E20714;}
	.st2{fill:#F6A600;}
	.st3{fill:#E95A0C;}
	.st4{fill:#4A4A4A;}
</style>
<g id="Page-1" transform="translate(80.000000, 6.000000)">
	<path id="Fill-1" class="st0" d="M164,31h-9.5c-2.5,0-4.5-2.1-4.5-4.7V13.7c0-2.6,2-4.7,4.5-4.7h9.4v2.3h-9.4c-1.2,0-2.2,1-2.2,2.3
		v12.7c0,1.3,1,2.3,2.2,2.3h9.5V31z"/>
	<path id="Fill-3" class="st0" d="M127.7,26.3c0,1.3-1,2.3-2.3,2.3h-7.9c-1.3,0-2.3-1-2.3-2.3v-2.9c0-1.3,1-2.3,2.3-2.3h10.1
		L127.7,26.3L127.7,26.3z M125.4,9h-7.9v2.3h7.9c1.3,0,2.3,1,2.3,2.3v5.1h-10.1c-2.5,0-4.5,2-4.6,4.6l0,0v3c0,2.6,2,4.7,4.6,4.7h7.9
		c2.5,0,4.6-2.1,4.6-4.7V13.7C130,11.1,127.9,9,125.4,9L125.4,9z"/>
	<g id="Group-7" transform="translate(90.000000, 0.000000)">
		<path id="Fill-5" class="st0" d="M19.3,0.1c-1-0.2-2.4,0.2-3.2,2.1c-1,2.2-2.1,5.3-3,7.7c-0.6,1.6-1.1,3.1-1.4,3.6
			c-0.1,0.3-0.3,0.7-0.6,0.7s-0.5-0.4-0.7-0.7c-0.2-0.5-0.8-2-1.4-3.6C8.1,7.5,7,4.5,6,2.2C5.2,0.3,3.8-0.1,2.8,0.1
			C1.5,0.4,0.5,1.7,0.5,3.2v26.4h2.2V3.2c0-0.5,0.3-0.8,0.6-0.9c0.3-0.1,0.6,0.4,0.8,0.8C5,5.3,6.2,8.3,7,10.7
			c0.7,1.7,1.2,3.1,1.4,3.7c0.5,1,1.4,2.2,2.6,2.2s2.3-1.3,2.7-2.2c0.3-0.6,0.8-2,1.4-3.7c0.9-2.4,2-5.4,3-7.6
			c0.2-0.4,0.5-0.8,0.8-0.8c0.3,0.1,0.6,0.4,0.6,0.9v26.4h2.2V3.2C21.6,1.7,20.7,0.4,19.3,0.1"/>
	</g>
	<polygon id="Fill-8" class="st0" points="149,9.1 145.7,9 135.3,19.2 135.3,9 133,9 133,29 135.3,29 135.3,22.4 135.3,22.4 
		138.8,19 146.1,29 148.9,29 140.5,17.4 	"/>
	<path id="Fill-10" class="st0" d="M75,10.2c-1.6,0-2.9,1.3-2.9,3v13.7c0,1.6,1.3,3,2.9,3h7.9c1.6,0,2.9-1.3,2.9-3V13.2
		c0-1.6-1.3-3-2.9-3H75z M83,31h-8c-2.2,0-4-1.9-4-4.2V13.2c0-2.3,1.8-4.2,4-4.2h7.9c2.2,0,4,1.9,4,4.2v13.7C87,29.1,85.2,31,83,31
		L83,31z"/>
	<path id="Fill-12" class="st0" d="M31.8,16.5c0,1.6-1.3,3-2.9,3H18.1v-6.3c0-1.6,1.3-3,2.9-3h7.9c1.6,0,2.9,1.3,2.9,3V16.5z M29,9
		h-8c-2.2,0-4,1.9-4,4.2v13.7c0,2.3,1.8,4.2,4,4.2h7.9v-1.2H21c-1.6,0-2.9-1.3-2.9-3v-6.2H29c2.2,0,4-1.8,4-4.1l0,0v-3.4
		C33,10.9,31.2,9,29,9L29,9z"/>
	<g id="Group-16">
		<polygon id="Fill-14" class="st0" points="17.9,0.4 0,0.4 0,1.6 8.4,1.6 8.4,29.8 9.5,29.8 9.5,1.6 17.9,1.6 		"/>
	</g>
	<path id="Fill-17" class="st0" d="M50.6,9h-0.1h-1.2c-0.6,0.9-4.3,6.1-6.2,8.8c-2-2.8-5.8-8.3-6.2-8.8h-1.4c0,0.1,5,7,6.9,9.7
		c-2.9,4.1-5.6,7.9-7.3,10.3h1.4c1.4-1.9,3.4-4.8,6.6-9.3c3.2,4.5,5.3,7.4,6.6,9.3h1.4c-1.7-2.4-4.4-6.2-7.3-10.3
		C45.6,16,50.6,9,50.6,9"/>
	<polygon id="Fill-19" class="st0" points="66.8,9 66.8,18.4 53.2,18.4 53.2,9 52,9 52,29 53.2,29 53.2,19.6 66.8,19.6 66.8,29 
		68,29 68,9 	"/>
</g>
<g id="Page-1_1_">
	<path id="Fill-1_1_" class="st1" d="M60.4,0c-2,0-6.5,3.3-13.9,8.6c-5.6,4.1-11.4,8.1-14.5,9.5c-0.6,0.3-1,0.4-1.2,0.4
		c-0.3,0-0.6-0.1-1.2-0.4c-3.1-1.5-8.9-5.5-14.5-9.5C7.8,3.3,3.2,0,1.2,0C0.4,0-0.1,0.6-0.1,1.8c0,4.6,3.3,35.8,4.1,40
		c0.7,4,5.1,5.6,7.9,6.9c3.5,1.7,7.1,3.1,9.9,4.9c3.3,2.1,14.7,2.1,18.1,0c2.8-1.8,6.4-3.1,9.9-4.9c2.8-1.4,7.2-3,7.9-6.9
		c0.8-4.2,4.1-35.4,4.1-40C61.8,0.6,61.3,0,60.4,0"/>
	<g id="Group-5" transform="translate(12.681818, 31.289709)">
		<path id="Fill-3_1_" class="st2" d="M35.3,0.5c-1.1,0-3.8,1.9-8,5c-3.2,2.4-6.6,4.7-8.4,5.5c-0.4,0.2-0.6,0.2-0.7,0.2
			c-0.2,0-0.4,0-0.7-0.2c-1.8-0.8-5.2-3.2-8.4-5.5c-4.2-3.1-6.9-5-8-5c-0.5,0-0.8,0.3-0.8,1.1c0,1.8,0.9,10.8,1.6,17.1
			C4.5,19.9,7,21,9.2,22.3c3.3,2.1,7.3,6.8,8,7.9c0.4,0.6,0.8,0.8,1,0.8c0.3,0,0.6-0.2,1-0.8c0.7-1.1,4.7-5.8,8-7.9
			c2.1-1.3,4.6-2.4,7.3-3.6c0.7-6.3,1.6-15.3,1.6-17.1C36.1,0.8,35.8,0.5,35.3,0.5"/>
	</g>
	<path id="Fill-6" class="st3" d="M60.4,0c-2,0-6.5,3.3-13.9,8.6c-5.6,4.1-11.4,8.1-14.5,9.5c-0.6,0.3-1,0.4-1.2,0.4
		s-0.5-0.1-0.9-0.2c2.7,1.7,18.9,12.4,18.8,14.4c-0.2,2.7-1.5,14.2-1.7,17.4c0.9-0.4,1.8-0.8,2.7-1.3c2.8-1.4,7.2-3,7.9-6.9
		c0.8-4.2,4.1-35.4,4.1-40C61.8,0.6,61.3,0,60.4,0"/>
</g>
<g>
	<path class="st4" d="M85.7,50.2c-1.3-0.1-2-1.3-2-2.5c0-1.4,0.8-2.6,2.3-2.6c0.5,0,1,0.1,1.3,0.4c0.1,0.1,0.1,0.1,0,0.2L87.3,46
		c-0.1,0.1-0.1,0.1-0.2,0c-0.3-0.2-0.6-0.3-0.9-0.3c-1.1,0-1.6,1-1.6,2c0,1,0.6,1.9,1.6,1.9c0.4,0,0.7-0.1,1-0.4
		c0.1,0,0.2-0.1,0.2,0l0.3,0.3c0.1,0.1,0.1,0.1,0,0.2C87.2,50.1,86.4,50.3,85.7,50.2z"/>
	<path class="st4" d="M90.4,50.2c-1.3-0.1-1.9-1.3-1.9-2.6c0-1.3,0.6-2.6,2.1-2.6c1.7,0,2.2,1.8,1.8,2.9h-3.1c0,0.8,0.4,1.5,1.3,1.6
		c0.4,0,0.8-0.1,1.2-0.4c0.1-0.1,0.1-0.1,0.2,0l0.3,0.3c0.1,0.1,0.1,0.1,0,0.2C91.7,50.1,91,50.3,90.4,50.2z M91.7,47.3
		c0.1-0.9-0.3-1.7-1.3-1.6c-0.8,0.1-1.2,0.9-1.2,1.6H91.7z"/>
	<path class="st4" d="M95,45.8V50c0,0.1-0.1,0.2-0.2,0.2h-0.4c-0.1,0-0.2-0.1-0.2-0.2v-4.2H93c-0.1,0-0.2,0-0.2-0.1v-0.3
		c0-0.1,0.1-0.2,0.2-0.2h3.4c0.1,0,0.1,0.1,0.1,0.2v0.3c0,0.1,0,0.1-0.1,0.1H95z"/>
	<path class="st4" d="M98.1,47.3c0.3-0.2,0.8-0.2,1.1-0.2c0.9,0.1,1.7,0.7,1.6,1.6c0,1.1-1,1.6-2,1.6c-0.6,0-1-0.2-1.5-0.4v-4.5
		c0-0.1,0.1-0.2,0.2-0.2h0.4c0.1,0,0.2,0.1,0.2,0.2V47.3z M98.1,49.5c0.2,0.1,0.5,0.1,0.7,0.1c0.6,0,1.3-0.3,1.3-0.9
		c0-0.7-0.6-1-1.1-1c-0.3,0-0.6,0.1-0.9,0.3V49.5z"/>
	<path class="st4" d="M109.6,46.4l-1.3,2.1c0,0.1-0.1,0.1-0.1,0.1h-0.3c-0.1,0-0.1,0-0.1-0.1l-1.3-2.1l0.1,0.9V50
		c0,0.1-0.1,0.2-0.2,0.2h-0.4c-0.1,0-0.2-0.1-0.2-0.2v-4.7c0-0.1,0.1-0.2,0.2-0.2h0.5c0.1,0,0.1,0,0.1,0.1l1.5,2.6l1.5-2.6
		c0-0.1,0.1-0.1,0.1-0.1h0.5c0.1,0,0.2,0.1,0.2,0.2V50c0,0.1-0.1,0.2-0.2,0.2h-0.4c-0.1,0-0.1-0.1-0.1-0.2v-2.7L109.6,46.4z"/>
	<path class="st4" d="M115.1,46.8v3c-0.5,0.3-1.2,0.4-1.7,0.4c-1,0-1.9-0.5-1.9-1.6c0-1.1,0.8-1.7,1.9-1.7c0.3,0,0.7,0.1,1.1,0.2
		c0-0.1,0-0.2,0-0.4c0-0.5-0.1-1.1-0.8-1.2c-0.5-0.1-1.1,0.1-1.4,0.3c-0.1,0.1-0.2,0.1-0.2,0l-0.1-0.3c0-0.1,0-0.1,0.1-0.2
		c0.4-0.3,1.1-0.5,1.6-0.4C114.6,45.1,115.1,45.7,115.1,46.8z M114.3,47.9c-0.3-0.2-0.7-0.3-1-0.3c-0.6,0-1.2,0.3-1.2,1.1
		c0,0.6,0.7,1,1.2,1c0.4,0,0.8-0.1,1-0.2V47.9z"/>
	<path class="st4" d="M117.2,45.8V50c0,0.1-0.1,0.2-0.2,0.2h-0.4c-0.1,0-0.2-0.1-0.2-0.2v-4.7c0-0.1,0.1-0.2,0.2-0.2h2.5
		c0.1,0,0.2,0.1,0.2,0.2v0.3c0,0.1-0.1,0.2-0.2,0.2H117.2z"/>
	<path class="st4" d="M123.4,46.8v3c-0.5,0.3-1.2,0.4-1.7,0.4c-1,0-1.9-0.5-1.9-1.6c0-1.1,0.8-1.7,1.9-1.7c0.3,0,0.7,0.1,1.1,0.2
		c0-0.1,0-0.2,0-0.4c0-0.5-0.1-1.1-0.8-1.2c-0.5-0.1-1.1,0.1-1.4,0.3c-0.1,0.1-0.2,0.1-0.2,0l-0.1-0.3c0-0.1,0-0.1,0.1-0.2
		c0.4-0.3,1.1-0.5,1.6-0.4C122.9,45.1,123.4,45.7,123.4,46.8z M122.6,47.9c-0.3-0.2-0.7-0.3-1-0.3c-0.6,0-1.2,0.3-1.2,1.1
		c0,0.6,0.7,1,1.2,1c0.4,0,0.8-0.1,1-0.2V47.9z"/>
	<path class="st4" d="M127.8,48.8c0,0.3-0.1,0.6-0.3,0.9c-0.4,0.4-1.2,0.6-1.8,0.6c-0.5,0-1.1-0.2-1.5-0.5c-0.1-0.1-0.1-0.1,0-0.2
		l0.2-0.3c0.1-0.1,0.1-0.1,0.2,0c0.4,0.2,0.8,0.4,1.2,0.4c0.6,0,1.2-0.3,1.2-0.9c0-0.6-0.6-0.8-1.2-0.9c-0.2,0-0.4,0-0.6,0
		c-0.1,0-0.2-0.1-0.2-0.2l0-0.3c0-0.1,0.1-0.2,0.2-0.2c0.4,0,1,0,1.3-0.3c0.2-0.2,0.3-0.6,0.1-0.8c-0.1-0.3-0.5-0.4-0.8-0.4
		c-0.3,0-0.7,0.1-1,0.2c-0.1,0.1-0.2,0-0.2-0.1l-0.1-0.3c0-0.1,0-0.2,0.1-0.2c0.4-0.2,0.8-0.3,1.3-0.3c0.5,0,1.1,0.2,1.4,0.6
		c0.1,0.2,0.2,0.4,0.2,0.7c0,0.5-0.3,0.9-0.7,1.1C127.4,47.6,127.8,48.2,127.8,48.8z"/>
	<path class="st4" d="M132,46.4l-2.3,3.7c0,0.1-0.1,0.1-0.1,0.1h-0.4c-0.1,0-0.2-0.1-0.2-0.2v-4.7c0-0.1,0.1-0.2,0.2-0.2h0.4
		c0.1,0,0.2,0.1,0.2,0.2v2.9l0,0.7l2.3-3.7c0-0.1,0.1-0.1,0.1-0.1h0.4c0.1,0,0.2,0.1,0.2,0.2V50c0,0.1-0.1,0.2-0.2,0.2h-0.4
		c-0.1,0-0.2-0.1-0.2-0.2v-2.9L132,46.4z"/>
	<path class="st4" d="M134.9,47.9V50c0,0.1-0.1,0.2-0.2,0.2h-0.4c-0.1,0-0.2-0.1-0.2-0.2v-4.7c0-0.1,0.1-0.2,0.2-0.2h0.4
		c0.1,0,0.2,0.1,0.2,0.2v1.9h2.1v-1.9c0-0.1,0-0.2,0.1-0.2h0.4c0.1,0,0.1,0.1,0.1,0.2V50c0,0.1,0,0.2-0.1,0.2h-0.4
		c-0.1,0-0.1-0.1-0.1-0.2v-2.1H134.9z"/>
	<path class="st4" d="M138.9,47.7c0-1.3,0.7-2.6,2.1-2.6c1.4,0,2.1,1.3,2.1,2.6c0,1.3-0.7,2.6-2.1,2.6
		C139.6,50.2,138.9,49,138.9,47.7z M139.6,47.7c0,0.8,0.4,1.9,1.4,1.9c1,0,1.4-1.1,1.4-1.9c0-0.8-0.4-1.9-1.4-1.9
		C140,45.8,139.6,46.9,139.6,47.7z"/>
	<path class="st4" d="M144.3,45.5c0.2-0.1,0.4-0.2,0.7-0.3c0.2-0.1,0.5-0.1,0.8-0.1c0.6,0,1.2,0.2,1.5,0.6c0.1,0.2,0.2,0.5,0.2,0.7
		c0,0.5-0.3,0.9-0.7,1.1v0c0.7,0.1,1.1,0.7,1.1,1.3c0,0.3-0.1,0.6-0.3,0.9c-0.4,0.4-1.1,0.6-1.6,0.6c-0.5,0-1.2-0.2-1.6-0.4V45.5z
		 M145,47.3c0.2,0,0.4,0,0.6,0c0.4,0,0.8-0.1,0.9-0.3c0.1-0.1,0.2-0.3,0.2-0.5c0-0.3-0.2-0.6-0.5-0.7c-0.1-0.1-0.3-0.1-0.5-0.1
		c-0.3,0-0.5,0.1-0.7,0.2V47.3z M145,49.5c0.2,0.1,0.8,0.1,1,0.1c0.6,0,1.1-0.3,1.1-0.9c0-0.7-0.8-0.9-1.5-0.9c-0.2,0-0.4,0-0.6,0
		V49.5z"/>
	<path class="st4" d="M154.2,50.2c-1.3-0.1-2-1.3-2-2.5c0-1.4,0.8-2.6,2.3-2.6c0.5,0,1,0.1,1.3,0.4c0.1,0.1,0.1,0.1,0,0.2l-0.2,0.3
		c-0.1,0.1-0.1,0.1-0.2,0c-0.3-0.2-0.6-0.3-0.9-0.3c-1.1,0-1.6,1-1.6,2c0,1,0.6,1.9,1.6,1.9c0.4,0,0.7-0.1,1-0.4
		c0.1,0,0.2-0.1,0.2,0l0.3,0.3c0.1,0.1,0.1,0.1,0,0.2C155.7,50.1,154.9,50.3,154.2,50.2z"/>
	<path class="st4" d="M156.9,47.7c0-1.3,0.7-2.6,2.1-2.6c1.4,0,2.1,1.3,2.1,2.6c0,1.3-0.7,2.6-2.1,2.6
		C157.6,50.2,156.9,49,156.9,47.7z M157.7,47.7c0,0.8,0.4,1.9,1.4,1.9c1,0,1.4-1.1,1.4-1.9c0-0.8-0.4-1.9-1.4-1.9
		C158,45.8,157.7,46.9,157.7,47.7z"/>
	<path class="st4" d="M162.3,45.5c0.2-0.1,0.4-0.2,0.7-0.3c0.2-0.1,0.5-0.1,0.8-0.1c0.6,0,1.2,0.2,1.5,0.6c0.1,0.2,0.2,0.5,0.2,0.7
		c0,0.5-0.3,0.9-0.7,1.1v0c0.7,0.1,1.1,0.7,1.1,1.3c0,0.3-0.1,0.6-0.3,0.9c-0.4,0.4-1.1,0.6-1.6,0.6c-0.5,0-1.2-0.2-1.6-0.4V45.5z
		 M163,47.3c0.2,0,0.4,0,0.6,0c0.4,0,0.8-0.1,0.9-0.3c0.1-0.1,0.2-0.3,0.2-0.5c0-0.3-0.2-0.6-0.5-0.7c-0.1-0.1-0.3-0.1-0.5-0.1
		c-0.3,0-0.5,0.1-0.7,0.2V47.3z M163,49.5c0.2,0.1,0.8,0.1,1,0.1c0.6,0,1.1-0.3,1.1-0.9c0-0.7-0.8-0.9-1.5-0.9c-0.2,0-0.4,0-0.6,0
		V49.5z"/>
	<path class="st4" d="M167.5,52c0,0.1,0,0.1-0.1,0.1h-0.5c-0.1,0-0.1,0-0.1-0.1v-6.5c0.3-0.3,0.9-0.4,1.5-0.4c1.6,0,2.5,1.2,2.4,2.7
		c-0.1,1.4-0.8,2.5-2.2,2.5c-0.5,0-0.8-0.1-1-0.2V52z M167.5,49.4c0.2,0.2,0.5,0.2,0.8,0.2c1,0,1.6-0.8,1.6-1.8
		c0-0.7-0.2-1.4-0.7-1.8c-0.3-0.2-0.6-0.3-1-0.3c-0.3,0-0.5,0.1-0.8,0.2V49.4z"/>
	<path class="st4" d="M173.6,50.2c-1.3-0.1-1.9-1.3-1.9-2.6c0-1.3,0.6-2.6,2.1-2.6c1.7,0,2.2,1.8,1.8,2.9h-3.1
		c0,0.8,0.4,1.5,1.3,1.6c0.4,0,0.8-0.1,1.2-0.4c0.1-0.1,0.1-0.1,0.2,0l0.3,0.3c0.1,0.1,0.1,0.1,0,0.2
		C174.9,50.1,174.2,50.3,173.6,50.2z M174.9,47.3c0.1-0.9-0.3-1.7-1.3-1.6c-0.8,0.1-1.2,0.9-1.2,1.6H174.9z"/>
	<path class="st4" d="M180.8,46.4l-1.3,2.1c0,0.1-0.1,0.1-0.1,0.1H179c-0.1,0-0.1,0-0.1-0.1l-1.3-2.1l0.1,0.9V50
		c0,0.1-0.1,0.2-0.2,0.2h-0.4c-0.1,0-0.2-0.1-0.2-0.2v-4.7c0-0.1,0.1-0.2,0.2-0.2h0.5c0.1,0,0.1,0,0.1,0.1l1.5,2.6l1.5-2.6
		c0-0.1,0.1-0.1,0.1-0.1h0.5c0.1,0,0.2,0.1,0.2,0.2V50c0,0.1-0.1,0.2-0.2,0.2h-0.4c-0.1,0-0.1-0.1-0.1-0.2v-2.7L180.8,46.4z"/>
	<path class="st4" d="M184.6,50.2c-1.3-0.1-1.9-1.3-1.9-2.6c0-1.3,0.6-2.6,2.1-2.6c1.7,0,2.2,1.8,1.8,2.9h-3.1
		c0,0.8,0.4,1.5,1.3,1.6c0.4,0,0.8-0.1,1.2-0.4c0.1-0.1,0.1-0.1,0.2,0l0.3,0.3c0.1,0.1,0.1,0.1,0,0.2
		C186,50.1,185.3,50.3,184.6,50.2z M185.9,47.3c0.1-0.9-0.3-1.7-1.3-1.6c-0.8,0.1-1.2,0.9-1.2,1.6H185.9z"/>
	<path class="st4" d="M188.6,47.9V50c0,0.1-0.1,0.2-0.2,0.2H188c-0.1,0-0.2-0.1-0.2-0.2v-4.7c0-0.1,0.1-0.2,0.2-0.2h0.4
		c0.1,0,0.2,0.1,0.2,0.2v1.9h2.1v-1.9c0-0.1,0-0.2,0.1-0.2h0.4c0.1,0,0.1,0.1,0.1,0.2V50c0,0.1,0,0.2-0.1,0.2h-0.4
		c-0.1,0-0.1-0.1-0.1-0.2v-2.1H188.6z"/>
	<path class="st4" d="M193.5,47.9V50c0,0.1-0.1,0.2-0.2,0.2h-0.4c-0.1,0-0.2-0.1-0.2-0.2v-4.7c0-0.1,0.1-0.2,0.2-0.2h0.4
		c0.1,0,0.2,0.1,0.2,0.2v1.9h2.1v-1.9c0-0.1,0-0.2,0.1-0.2h0.4c0.1,0,0.1,0.1,0.1,0.2V50c0,0.1,0,0.2-0.1,0.2h-0.4
		c-0.1,0-0.1-0.1-0.1-0.2v-2.1H193.5z"/>
	<path class="st4" d="M197.5,47.7c0-1.3,0.7-2.6,2.1-2.6s2.1,1.3,2.1,2.6c0,1.3-0.7,2.6-2.1,2.6S197.5,49,197.5,47.7z M198.2,47.7
		c0,0.8,0.4,1.9,1.4,1.9c1,0,1.4-1.1,1.4-1.9c0-0.8-0.4-1.9-1.4-1.9C198.5,45.8,198.2,46.9,198.2,47.7z"/>
	<path class="st4" d="M206,46.4l-2.3,3.7c0,0.1-0.1,0.1-0.1,0.1h-0.4c-0.1,0-0.2-0.1-0.2-0.2v-4.7c0-0.1,0.1-0.2,0.2-0.2h0.4
		c0.1,0,0.2,0.1,0.2,0.2v2.9l0,0.7l2.3-3.7c0-0.1,0.1-0.1,0.1-0.1h0.4c0.1,0,0.2,0.1,0.2,0.2V50c0,0.1-0.1,0.2-0.2,0.2h-0.4
		c-0.1,0-0.2-0.1-0.2-0.2v-2.9L206,46.4z M204.8,44.6c-0.4,0-0.8-0.1-1-0.4c-0.1-0.1-0.1-0.2,0-0.2l0.3-0.2c0.1,0,0.2,0,0.2,0
		c0.1,0.2,0.3,0.3,0.6,0.3c0.2,0,0.4-0.1,0.6-0.3c0.1-0.1,0.1-0.1,0.2,0l0.3,0.2c0.1,0.1,0.1,0.2,0,0.2
		C205.6,44.5,205.2,44.6,204.8,44.6z"/>
	<path class="st4" d="M213.6,45.8V50c0,0.1-0.1,0.2-0.2,0.2H213c-0.1,0-0.2-0.1-0.2-0.2v-4.2h-1.3c-0.1,0-0.2,0-0.2-0.1v-0.3
		c0-0.1,0.1-0.2,0.2-0.2h3.4c0.1,0,0.1,0.1,0.1,0.2v0.3c0,0.1,0,0.1-0.1,0.1H213.6z"/>
	<path class="st4" d="M217.6,50.2c-1.3-0.1-1.9-1.3-1.9-2.6c0-1.3,0.6-2.6,2.1-2.6c1.7,0,2.2,1.8,1.8,2.9h-3.1
		c0,0.8,0.4,1.5,1.3,1.6c0.4,0,0.8-0.1,1.2-0.4c0.1-0.1,0.1-0.1,0.2,0l0.3,0.3c0.1,0.1,0.1,0.1,0,0.2
		C218.9,50.1,218.2,50.3,217.6,50.2z M218.9,47.3c0.1-0.9-0.3-1.7-1.3-1.6c-0.8,0.1-1.2,0.9-1.2,1.6H218.9z"/>
	<path class="st4" d="M222.3,47.1l1.2-2c0.1-0.1,0.1-0.1,0.2-0.1l0.3,0.2c0.1,0.1,0.1,0.1,0.1,0.2l-1.3,2.1l1.4,2.2
		c0.1,0.1,0,0.2-0.1,0.2l-0.4,0.2c-0.1,0.1-0.2,0-0.2-0.1l-1.2-2l-1.2,1.9c-0.1,0.1-0.1,0.1-0.2,0.1l-0.3-0.2
		c-0.1-0.1-0.1-0.1-0.1-0.2l1.3-2.1l-1.3-2.1c-0.1-0.1,0-0.1,0-0.2l0.4-0.2c0.1,0,0.2,0,0.2,0.1L222.3,47.1z"/>
	<path class="st4" d="M225.9,47.9V50c0,0.1-0.1,0.2-0.2,0.2h-0.4c-0.1,0-0.2-0.1-0.2-0.2v-4.7c0-0.1,0.1-0.2,0.2-0.2h0.4
		c0.1,0,0.2,0.1,0.2,0.2v1.9h2.1v-1.9c0-0.1,0-0.2,0.1-0.2h0.4c0.1,0,0.1,0.1,0.1,0.2V50c0,0.1,0,0.2-0.1,0.2h-0.4
		c-0.1,0-0.1-0.1-0.1-0.2v-2.1H225.9z"/>
	<path class="st4" d="M233.2,46.4l-2.3,3.7c0,0.1-0.1,0.1-0.1,0.1h-0.4c-0.1,0-0.2-0.1-0.2-0.2v-4.7c0-0.1,0.1-0.2,0.2-0.2h0.4
		c0.1,0,0.2,0.1,0.2,0.2v2.9l0,0.7l2.3-3.7c0-0.1,0.1-0.1,0.1-0.1h0.4c0.1,0,0.2,0.1,0.2,0.2V50c0,0.1-0.1,0.2-0.2,0.2h-0.4
		c-0.1,0-0.2-0.1-0.2-0.2v-2.9L233.2,46.4z"/>
	<path class="st4" d="M237.8,48.5l0.9,1.3c0.1,0.1,0.1,0.2,0,0.2l-0.5,0.2c-0.1,0-0.1,0-0.2-0.1c-0.4-0.6-0.8-1.1-1.2-1.7
		c-0.2-0.3-0.4-0.5-0.8-0.5v2c0,0.1-0.1,0.2-0.2,0.2h-0.4c-0.1,0-0.2-0.1-0.2-0.2v-4.7c0-0.1,0.1-0.2,0.2-0.2h0.4
		c0.1,0,0.2,0.1,0.2,0.2v2c0.5-0.1,0.9-0.9,1.2-1.2l0.6-0.9c0.1-0.1,0.1-0.1,0.2-0.1l0.4,0.1c0.1,0,0.1,0.2,0,0.2l-0.9,1.3
		c-0.2,0.3-0.5,0.6-0.8,0.8C237.3,47.8,237.6,48.2,237.8,48.5z"/>
	<path class="st4" d="M243,46.4l-2.3,3.7c0,0.1-0.1,0.1-0.1,0.1h-0.4c-0.1,0-0.2-0.1-0.2-0.2v-4.7c0-0.1,0.1-0.2,0.2-0.2h0.4
		c0.1,0,0.2,0.1,0.2,0.2v2.9l0,0.7l2.3-3.7c0-0.1,0.1-0.1,0.1-0.1h0.4c0.1,0,0.2,0.1,0.2,0.2V50c0,0.1-0.1,0.2-0.2,0.2h-0.4
		c-0.1,0-0.2-0.1-0.2-0.2v-2.9L243,46.4z"/>
</g>
</svg>
