<?xml version="1.0" encoding="utf-8"?>
<svg version="1.1"
	 id="svg10" inkscape:version="0.92.4 (5da689c313, 2019-01-14)" sodipodi:docname="pin.svg" xmlns:cc="http://creativecommons.org/ns#" xmlns:dc="http://purl.org/dc/elements/1.1/" xmlns:inkscape="http://www.inkscape.org/namespaces/inkscape" xmlns:rdf="http://www.w3.org/1999/02/22-rdf-syntax-ns#" xmlns:sodipodi="http://sodipodi.sourceforge.net/DTD/sodipodi-0.dtd" xmlns:svg="http://www.w3.org/2000/svg"
	 xmlns="http://www.w3.org/2000/svg" xmlns:xlink="http://www.w3.org/1999/xlink" x="0px" y="0px" viewBox="0 0 818.7 1306.7"
	 style="enable-background:new 0 0 818.7 1306.7;" xml:space="preserve">
<style type="text/css">
	.st0{fill:#E57C56;}
</style>
<sodipodi:namedview  bordercolor="#666666" borderopacity="1" gridtolerance="10" guidetolerance="10" id="namedview12" inkscape:current-layer="svg10" inkscape:cx="409.33334" inkscape:cy="653.33337" inkscape:pageopacity="0" inkscape:pageshadow="2" inkscape:window-height="1017" inkscape:window-maximized="1" inkscape:window-width="1920" inkscape:window-x="-8" inkscape:window-y="-8" inkscape:zoom="0.64897955" objecttolerance="10" pagecolor="#ffffff" showgrid="false">
	</sodipodi:namedview>
<path id="path20" inkscape:connector-curvature="0" class="st0" d="M408.8,1268.5c-1.8-30.6-8.3-69.9-17.9-107.9
	c-23.6-93.3-67.6-187.9-133-285.7c-37.7-56.3-80.2-109.6-124.6-155.9c-32.2-33.6-47.6-53-65.5-82.8C28.5,570.9,9.5,497.2,11.7,419
	C14.7,314,57.3,217.5,133,144.2C228.5,51.8,361.4,13.4,492.7,40.3c32.8,6.7,60.9,16.5,94.6,33.1c104.9,51.5,183,148.3,210.7,261.2
	c26.8,109.4,7.4,222.8-54,316c-15,22.7-30.1,41.2-54.5,66.8C584.4,827,497.2,963.7,451.8,1089.5c-21.8,60.4-36.7,127.3-39.6,178
	c-0.5,8.3-1.3,15.1-1.8,15.1S409.2,1276.2,408.8,1268.5L408.8,1268.5z M424.2,795.7c44.3-67.3,94.3-130.5,147.3-186.2
	c37-38.9,53.6-64.3,66-101.6c16.8-50.4,16.7-102.6-0.1-153.3c-30.5-91.8-114.5-156.5-210.6-162.4c-73.9-4.5-142.5,22.7-192.2,76.3
	c-75.1,81-85,202.3-24.1,294.7c10,15.1,16.5,22.8,40.8,48.3c51.2,53.6,109.8,128.4,150,191.4c4.5,7,8.5,12.7,9,12.7
	S417,806.6,424.2,795.7L424.2,795.7z M400.3,510.1c-23.8-2.6-48.5-19.6-60.1-41.4c-8.2-15.4-11.4-37-7.9-53.9
	c2.6-12.6,12-30,21.2-39.1c25.6-25.4,60.9-31.3,92.8-15.5c13.2,6.5,22.2,14.5,30.4,26.7c9,13.4,12.1,23.1,12.9,39.9
	c0.8,16.1-1.3,27-7.6,39.5C466.6,497.2,435.2,514,400.3,510.1L400.3,510.1z"/>
</svg>
