<?xml version="1.0" encoding="UTF-8"?>
<svg width="14px" height="13px" viewBox="0 0 14 13" version="1.1" xmlns="http://www.w3.org/2000/svg" xmlns:xlink="http://www.w3.org/1999/xlink">
    <!-- Generator: Sketch 47 (45396) - http://www.bohemiancoding.com/sketch -->
    <title>Star Copy 3</title>
    <desc>Created with Sketch.</desc>
    <defs></defs>
    <g id="Page-1" stroke="none" stroke-width="1" fill="none" fill-rule="evenodd">
        <g id="f_menu" transform="translate(-920.000000, -743.000000)" fill="#F6A600">
            <g id="Group-6" transform="translate(869.000000, 743.000000)">
                <path d="M57.5879459,10.6783872 L54.6584463,12.48083 L54.6584463,12.48083 C54.188065,12.7702431 53.5721301,12.6235393 53.282717,12.1531581 C53.1430838,11.926213 53.0997992,11.6529252 53.1624684,11.3939385 L53.9714283,8.05083336 L51.3519381,5.82169918 L51.3519381,5.82169918 C50.9313342,5.46377355 50.8805233,4.83265063 51.238449,4.41204667 C51.4111375,4.20911767 51.657674,4.08350104 51.9233508,4.06307174 L55.3528151,3.79936201 L56.6633807,0.61923844 L56.6633807,0.61923844 C56.8738144,0.108615201 57.4583466,-0.134736481 57.9689698,0.0756972448 C58.2153305,0.177225307 58.410983,0.372877798 58.512511,0.61923844 L59.8230766,3.79936201 L63.2525409,4.06307174 L63.2525409,4.06307174 C63.8032001,4.10541485 64.2152717,4.58613816 64.1729286,5.13679732 C64.1524993,5.40247411 64.0268826,5.64901063 63.8239536,5.82169918 L61.2044634,8.05083336 L62.0134233,11.3939385 L62.0134233,11.3939385 C62.1433157,11.9307312 61.8134577,12.4711863 61.276665,12.6010786 C61.0176784,12.6637478 60.7443905,12.6204633 60.5174455,12.48083 L57.5879459,10.6783872 Z" id="Star-Copy-3"></path>
            </g>
        </g>
    </g>
</svg>