<?xml version="1.0" encoding="utf-8"?>
<!-- Generator: Adobe Illustrator 23.1.0, SVG Export Plug-In . SVG Version: 6.00 Build 0)  -->
<svg version="1.1" id="Layer_1" xmlns="http://www.w3.org/2000/svg" xmlns:xlink="http://www.w3.org/1999/xlink" x="0px" y="0px"
	 viewBox="0 0 125 40" style="enable-background:new 0 0 125 40;" xml:space="preserve">
<style type="text/css">
	.st0{fill-rule:evenodd;clip-rule:evenodd;fill:#F6A600;}
</style>
<title>7A73EB1C-B1FC-47CF-8DB7-D1E070100907</title>
<g id="Page-1">
	<g id="f_main-4" transform="translate(-1166.000000, -2009.000000)">
		<g id="Email-rassilka-Copy" transform="translate(0.000000, 1971.000000)">
			<g id="BTN-Copy-6" transform="translate(1166.000000, 38.000000)">
				<g id="Group">
					<path id="Rectangle-12" class="st0" d="M8.8,0h107.5l0,0c4.4,0,8,3.6,8,8c0,0.5-0.1,1.1-0.2,1.6l-4.8,24l0,0
						c-0.7,3.7-4,6.4-7.8,6.4H13.6l0,0c-3.8,0-7.1-2.7-7.8-6.4l-4.8-24l0,0C0,5.2,2.9,1,7.2,0.2C7.7,0.1,8.2,0,8.8,0z"/>
				</g>
			</g>
		</g>
	</g>
</g>
</svg>
