<?xml version="1.0" encoding="UTF-8"?>
<svg width="313px" height="55px" viewBox="0 0 313 55" version="1.1" xmlns="http://www.w3.org/2000/svg" xmlns:xlink="http://www.w3.org/1999/xlink">
    <!-- Generator: Sketch 47 (45396) - http://www.bohemiancoding.com/sketch -->
    <title>Rectangle 12</title>
    <desc>Created with Sketch.</desc>
    <defs></defs>
    <g id="Page-1" stroke="none" stroke-width="1" fill="none" fill-rule="evenodd">
        <g id="f_korzina_01" transform="translate(-1205.000000, -383.000000)" fill="#e95a0c">
            <g id="Group-3" transform="translate(1205.000000, 383.000000)">
                <path d="M10.0017338,1.77646526e-15 L302.998455,1.77657368e-15 L302.998455,-8.8817842e-15 C308.521303,1.95353716e-14 312.998455,4.4771525 312.998455,10 C312.998455,10.599916 312.94447,11.1986151 312.837154,11.7888544 L306.473518,46.7888544 L306.473518,46.7888544 C305.608989,51.5437613 301.46768,55 296.634819,55 L16.3653701,55 L16.3653701,55 C11.5325087,55 7.39119958,51.5437613 6.52667104,46.7888544 L0.16303468,11.7888544 L0.16303468,11.7888544 C-0.824922315,6.35509091 2.77911593,1.14925789 8.2128794,0.161300899 C8.8031187,0.0539846616 9.40181778,1.88651178e-15 10.0017338,1.77635684e-15 Z" id="Rectangle-12"></path>
            </g>
        </g>
    </g>
</svg>