<?xml version="1.0" encoding="utf-8"?>
<!-- Generator: Adobe Illustrator 23.1.0, SVG Export Plug-In . SVG Version: 6.00 Build 0)  -->
<svg version="1.1" id="Layer_1" xmlns="http://www.w3.org/2000/svg" xmlns:xlink="http://www.w3.org/1999/xlink" x="0px" y="0px"
	 viewBox="0 0 16.6 16.6" style="enable-background:new 0 0 16.6 16.6;" xml:space="preserve">
<style type="text/css">
	.st0{fill:#c7c7c7;}
</style>
<g>
	<path class="st0" d="M11.6,10.5l-2-2c-0.1-0.1-0.1-0.4,0-0.4L11.7,6c0.1-0.1,0.1-0.4,0-0.4L11,4.9c-0.1-0.1-0.3-0.1-0.4,0L8.5,7
		C8.4,7.1,8.2,7,8.1,7l-2-2C6,4.8,5.8,4.9,5.7,5L5.1,5.5C4.9,5.8,5,6,5,6L7,7.9C7.1,8.1,7,8.3,7,8.4l-2.1,2.1
		c-0.1,0.1-0.1,0.4,0,0.4l0.6,0.6c0.1,0.1,0.4,0.1,0.4,0l2-2c0.3,0,0.6,0,0.6,0.1l1.9,1.9c0.1,0.1,0.4,0.1,0.4,0l0.6-0.6
		C11.7,10.8,11.7,10.6,11.6,10.5z"/>
	<path class="st0" d="M14.2,2.4c-3.3-3.3-8.5-3.3-11.7,0s-3.3,8.5,0,11.7s8.5,3.3,11.7,0S17.4,5.7,14.2,2.4z M3.1,13.5
		C0.3,10.6,0.3,6,3.1,3.1s7.5-2.8,10.3,0s2.8,7.5,0,10.3S6,16.3,3.1,13.5z"/>
</g>
</svg>
