<?xml version="1.0" encoding="UTF-8"?>
<svg width="128px" height="89px" viewBox="0 0 128 89" version="1.1" xmlns="http://www.w3.org/2000/svg" xmlns:xlink="http://www.w3.org/1999/xlink">
    <!-- Generator: sketchtool 47 (45396) - http://www.bohemiancoding.com/sketch -->
    <title>8CFAE0C8-B36B-47BA-B990-D1D4B2230F47</title>
    <desc>Created with sketchtool.</desc>
    <defs></defs>
    <g id="Symbols" stroke="none" stroke-width="1" fill="none" fill-rule="evenodd">
        <g id="perspectiva" transform="translate(-322.000000, 0.000000)">
            <g id="Page-1" transform="translate(323.000000, 0.000000)">
                <path d="M94.6748,30.6255 L94.6748,38.0295 C94.6748,38.0295 94.6948,43.4395 99.6778,44.2945 C104.6608,45.1485 116.8568,46.0625 116.8568,46.0625" id="Stroke-1" stroke="#EC1C24" stroke-width="2" stroke-linecap="round" stroke-linejoin="round"></path>
                <path d="M27.4277,85.5747 C26.4837,85.5747 25.7197,86.3407 25.7197,87.2837 C25.7197,88.2267 26.4837,88.9917 27.4277,88.9917 L30.8447,88.9917 C31.7887,88.9917 32.5527,88.2267 32.5527,87.2837 C32.5527,86.3407 31.7887,85.5747 30.8447,85.5747 L27.4277,85.5747 Z" id="Fill-3" fill="#EC1C24"></path>
                <path d="M40.2422,85.5747 C39.2982,85.5747 38.5332,86.3407 38.5332,87.2837 C38.5332,88.2267 39.2982,88.9917 40.2422,88.9917 L43.6592,88.9917 C44.6022,88.9917 45.3672,88.2267 45.3672,87.2837 C45.3672,86.3407 44.6022,85.5747 43.6592,85.5747 L40.2422,85.5747 Z" id="Fill-5" fill="#EC1C24"></path>
                <path d="M104.314,85.5747 C103.37,85.5747 102.606,86.3407 102.606,87.2837 C102.606,88.2267 103.37,88.9917 104.314,88.9917 L107.731,88.9917 C108.675,88.9917 109.439,88.2267 109.439,87.2837 C109.439,86.3407 108.675,85.5747 107.731,85.5747 L104.314,85.5747 Z" id="Fill-7" fill="#EC1C24"></path>
                <path d="M91.4995,85.5747 C90.5565,85.5747 89.7915,86.3407 89.7915,87.2837 C89.7915,88.2267 90.5565,88.9917 91.4995,88.9917 L94.9165,88.9917 C95.8605,88.9917 96.6255,88.2267 96.6255,87.2837 C96.6255,86.3407 95.8605,85.5747 94.9165,85.5747 L91.4995,85.5747 Z" id="Fill-9" fill="#EC1C24"></path>
                <path d="M117.1284,85.5747 C116.1844,85.5747 115.4194,86.3407 115.4194,87.2837 C115.4194,88.2267 116.1844,88.9917 117.1284,88.9917 L120.5454,88.9917 C121.4884,88.9917 122.2534,88.2267 122.2534,87.2837 C122.2534,86.3407 121.4884,85.5747 120.5454,85.5747 L117.1284,85.5747 Z" id="Fill-11" fill="#EC1C24"></path>
                <path d="M78.6851,85.5747 C77.7421,85.5747 76.9771,86.3407 76.9771,87.2837 C76.9771,88.2267 77.7421,88.9917 78.6851,88.9917 L82.1021,88.9917 C83.0461,88.9917 83.8111,88.2267 83.8111,87.2837 C83.8111,86.3407 83.0461,85.5747 82.1021,85.5747 L78.6851,85.5747 Z" id="Fill-13" fill="#EC1C24"></path>
                <path d="M65.8706,85.5747 C64.9276,85.5747 64.1626,86.3407 64.1626,87.2837 C64.1626,88.2267 64.9276,88.9917 65.8706,88.9917 L69.2876,88.9917 C70.2316,88.9917 70.9966,88.2267 70.9966,87.2837 C70.9966,86.3407 70.2316,85.5747 69.2876,85.5747 L65.8706,85.5747 Z" id="Fill-15" fill="#EC1C24"></path>
                <path d="M53.0562,85.5747 C52.1132,85.5747 51.3482,86.3407 51.3482,87.2837 C51.3482,88.2267 52.1132,88.9917 53.0562,88.9917 L56.4732,88.9917 C57.4172,88.9917 58.1822,88.2267 58.1822,87.2837 C58.1822,86.3407 57.4172,85.5747 56.4732,85.5747 L53.0562,85.5747 Z" id="Fill-17" fill="#EC1C24"></path>
                <path d="M10.939,78.395 L125.671,78.395" id="Stroke-19" stroke="#EC1C24" stroke-width="2" stroke-linecap="round" stroke-linejoin="round"></path>
                <path d="M53.4326,70.2085 C53.4326,74.1115 50.2676,77.2755 46.3646,77.2755 C42.4606,77.2755 39.2966,74.1115 39.2966,70.2085 C39.2966,66.3045 42.4606,63.1405 46.3646,63.1405 C50.2676,63.1405 53.4326,66.3045 53.4326,70.2085 Z" id="Stroke-21" stroke="#EC1C24" stroke-width="2" stroke-linecap="round" stroke-linejoin="round"></path>
                <path d="M49.6606,70.2085 C49.6606,72.0285 48.1846,73.5045 46.3646,73.5045 C44.5436,73.5045 43.0676,72.0285 43.0676,70.2085 C43.0676,68.3875 44.5436,66.9115 46.3646,66.9115 C48.1846,66.9115 49.6606,68.3875 49.6606,70.2085 Z" id="Stroke-23" stroke="#EC1C24" stroke-width="2" stroke-linecap="round" stroke-linejoin="round"></path>
                <path d="M106.9434,70.2085 C106.9434,72.0285 105.4674,73.5045 103.6474,73.5045 C101.8264,73.5045 100.3514,72.0285 100.3514,70.2085 C100.3514,68.3875 101.8264,66.9115 103.6474,66.9115 C105.4674,66.9115 106.9434,68.3875 106.9434,70.2085 Z" id="Stroke-25" stroke="#EC1C24" stroke-width="2" stroke-linecap="round" stroke-linejoin="round"></path>
                <path d="M110.7153,70.2085 C110.7153,74.1115 107.5503,77.2755 103.6473,77.2755 C99.7433,77.2755 96.5793,74.1115 96.5793,70.2085 C96.5793,66.3045 99.7433,63.1405 103.6473,63.1405 C107.5503,63.1405 110.7153,66.3045 110.7153,70.2085 Z" id="Stroke-27" stroke="#EC1C24" stroke-width="2" stroke-linecap="round" stroke-linejoin="round"></path>
                <path d="M53.4331,68.6421 L87.1481,68.6421" id="Stroke-29" stroke="#EC1C24" stroke-width="2" stroke-linecap="round" stroke-linejoin="round"></path>
                <polyline id="Stroke-31" stroke="#EC1C24" stroke-width="2" stroke-linecap="round" stroke-linejoin="round" points="34.752 57.9634 34.752 68.6424 39.296 68.6424"></polyline>
                <path d="M89.1416,30.0454 L107.0076,30.0454 C110.7156,30.0454 112.1096,31.3034 113.1326,33.0934 C115.6246,37.4604 117.6296,40.3184 117.1286,45.3944 C116.3876,52.9034 115.5326,57.8504 115.5326,57.8504" id="Stroke-33" stroke="#EC1C24" stroke-width="2" stroke-linecap="round" stroke-linejoin="round"></path>
                <path d="M88.2876,23.2221 L46.3646,57.7121" id="Stroke-35" stroke="#EC1C24" stroke-width="2" stroke-linecap="round" stroke-linejoin="round"></path>
                <path d="M65.4146,12.7358 L25.7196,45.3938" id="Stroke-37" stroke="#EC1C24" stroke-width="2" stroke-linecap="round" stroke-linejoin="round"></path>
                <path d="M61.8403,0.9995 L102.6593,0.9995" id="Stroke-39" stroke="#F9A51A" stroke-width="2" stroke-linecap="round" stroke-linejoin="round"></path>
                <path d="M39.333,0.9995 L54.151,0.9995" id="Stroke-41" stroke="#F9A51A" stroke-width="2" stroke-linecap="round" stroke-linejoin="round"></path>
                <path d="M0,13.1518 L14.818,13.1518" id="Stroke-43" stroke="#F9A51A" stroke-width="2" stroke-linecap="round" stroke-linejoin="round"></path>
                <path d="M110.7158,0.9995 L112.1328,0.9995" id="Stroke-45" stroke="#F9A51A" stroke-width="2" stroke-linecap="round" stroke-linejoin="round"></path>
                <path d="M10.939,5.2485 L19.545,5.2485" id="Stroke-47" stroke="#F9A51A" stroke-width="2" stroke-linecap="round" stroke-linejoin="round"></path>
                <path d="M18.0225,68.6421 L26.6285,68.6421" id="Stroke-49" stroke="#F9A51A" stroke-width="2" stroke-linecap="round" stroke-linejoin="round"></path>
                <path d="M12.3066,68.6421 L11.3016,68.6421" id="Stroke-51" stroke="#F9A51A" stroke-width="2" stroke-linecap="round" stroke-linejoin="round"></path>
                <path d="M110.9844,68.6421 L117.9244,68.6421 L117.9244,63.3111 C117.9244,61.3451 117.1434,59.4601 115.7544,58.0711 L115.5324,57.8501 L25.7194,57.8501 L25.7194,12.1061 L88.2874,12.1061 L88.2874,56.9661" id="Stroke-53" stroke="#EC1C24" stroke-width="2" stroke-linecap="round" stroke-linejoin="round"></path>
            </g>
        </g>
    </g>
</svg>