<?xml version="1.0" encoding="UTF-8"?>
<svg width="20px" height="12px" viewBox="0 0 20 12" version="1.1" xmlns="http://www.w3.org/2000/svg" xmlns:xlink="http://www.w3.org/1999/xlink">
    <!-- Generator: Sketch 47 (45396) - http://www.bohemiancoding.com/sketch -->
    <title>Group 9</title>
    <desc>Created with Sketch.</desc>
    <defs></defs>
    <g id="Page-1" stroke="none" stroke-width="1" fill="none" fill-rule="evenodd">
        <g id="f_catalog_categor" transform="translate(-1064.000000, -2262.000000)">
            <g id="Group-12-Copy" transform="translate(1065.000000, 2260.000000)">
                <g id="Page-1" transform="translate(0.250000, 2.895833)">
                    <g id="Group-9">
                        <path d="M16.9673491,5.10450017 C16.9673491,5.10450017 13.4346442,10.0684337 8.49318332,10.0684337 C3.55200333,10.0684337 0.0192984119,5.10450017 0.0192984119,5.10450017 C0.0192984119,5.10450017 3.55200333,0.140566598 8.49318332,0.140566598 C13.4346442,0.140566598 16.9673491,5.10450017 16.9673491,5.10450017 Z" id="Stroke-1" stroke="#F6A600" stroke-width="2"></path>
                        <path d="M11.2431368,5.10450017 C11.2431368,6.62309136 10.011915,7.85431318 8.49332377,7.85431318 C6.97473258,7.85431318 5.74351076,6.62309136 5.74351076,5.10450017 C5.74351076,3.58590898 6.97473258,2.35468716 8.49332377,2.35468716 C10.011915,2.35468716 11.2431368,3.58590898 11.2431368,5.10450017" id="Fill-3" fill="#E95A0C"></path>
                    </g>
                </g>
            </g>
        </g>
    </g>
</svg>