<?xml version="1.0" encoding="utf-8"?>
<!-- Generator: Adobe Illustrator 23.1.0, SVG Export Plug-In . SVG Version: 6.00 Build 0)  -->
<svg version="1.1" id="Layer_1" xmlns="http://www.w3.org/2000/svg" xmlns:xlink="http://www.w3.org/1999/xlink" x="0px" y="0px"
	 viewBox="0 0 40 40" style="enable-background:new 0 0 40 40;" xml:space="preserve">
<style type="text/css">
	.st0{fill:#F6A600;}
</style>
<g>
	<path class="st0" d="M15.5,0.5c-8.27,0-15,6.73-15,15s6.73,15,15,15s15-6.73,15-15S23.77,0.5,15.5,0.5z M15.5,26.49
		c-6.06,0-11-4.93-11-11s4.93-11,11-11s11,4.93,11,11S21.56,26.49,15.5,26.49z"/>
	<path class="st0" d="M38.41,35.59l-7.56-7.56c-0.78-0.78-2.05-0.78-2.83,0c-0.78,0.78-0.78,2.05,0,2.83l7.56,7.56
		C35.98,38.8,36.49,39,37,39s1.02-0.2,1.41-0.59C39.2,37.63,39.2,36.37,38.41,35.59z"/>
</g>
</svg>
