<?xml version="1.0" encoding="UTF-8"?>
<svg width="96px" height="96px" viewBox="0 0 96 96" version="1.1" xmlns="http://www.w3.org/2000/svg" xmlns:xlink="http://www.w3.org/1999/xlink">
    <!-- Generator: sketchtool 47 (45396) - http://www.bohemiancoding.com/sketch -->
    <title>8CFDFC23-27FB-4420-8F9C-765CB802746E</title>
    <desc>Created with sketchtool.</desc>
    <defs></defs>
    <g id="Symbols" stroke="none" stroke-width="1" fill="none" fill-rule="evenodd">
        <g id="perspectiva" transform="translate(-947.000000, 0.000000)">
            <g id="Page-1" transform="translate(949.000000, 2.000000)">
                <path d="M46.5752,79.3784 C28.0812,79.3784 13.0892,64.3864 13.0892,45.8924 C13.0892,27.3994 28.0812,12.4064 46.5752,12.4064 C65.0692,12.4064 80.0612,27.3994 80.0612,45.8924 C80.0612,64.3864 65.0692,79.3784 46.5752,79.3784 M83.4842,53.4034 C82.0162,51.2934 80.3512,48.9014 80.3512,46.2054 C80.3512,43.5094 82.0162,41.1174 83.4842,39.0074 C84.1532,38.0474 85.2492,36.4724 85.3772,35.7864 C84.9342,35.2224 83.0392,34.3364 82.0002,33.8504 C79.6112,32.7324 77.1412,31.5764 75.8362,29.3204 C74.5112,27.0304 74.7522,24.1624 74.9652,21.6334 C75.0662,20.4354 75.2312,18.4694 74.9802,17.8084 C74.8292,17.7584 74.4492,17.6674 73.6402,17.6674 C72.8952,17.6674 72.0472,17.7384 71.1482,17.8154 C70.1552,17.8994 69.1282,17.9844 68.1122,17.9844 C66.8872,17.9844 65.0722,17.8764 63.4612,16.9444 C61.2042,15.6404 60.0482,13.1694 58.9302,10.7804 C58.4342,9.7194 57.5212,7.7664 57.0172,7.3994 C56.3462,7.5054 54.7452,8.6194 53.7732,9.2964 C51.6632,10.7654 49.2712,12.4294 46.5752,12.4294 C43.8792,12.4294 41.4872,10.7654 39.3772,9.2964 C38.4152,8.6274 36.8382,7.5284 36.1572,7.4024 C35.5922,7.8454 34.7062,9.7404 34.2202,10.7804 C33.1012,13.1694 31.9462,15.6404 29.6902,16.9444 C28.0782,17.8774 26.2632,17.9854 25.0362,17.9854 C24.0212,17.9854 22.9942,17.8994 22.0012,17.8154 C21.1032,17.7394 20.2542,17.6684 19.5102,17.6684 C18.7002,17.6684 18.3192,17.7584 18.1692,17.8094 C17.9182,18.4704 18.0832,20.4364 18.1842,21.6334 C18.3972,24.1634 18.6382,27.0304 17.3142,29.3194 C16.0092,31.5764 13.5382,32.7324 11.1502,33.8504 C10.0892,34.3474 8.1362,35.2604 7.7692,35.7634 C7.8752,36.4354 8.9892,38.0354 9.6662,39.0074 C11.1342,41.1174 12.7992,43.5094 12.7992,46.2054 C12.7992,48.9014 11.1342,51.2934 9.6662,53.4034 C8.9972,54.3634 7.9012,55.9394 7.7732,56.6244 C8.2162,57.1894 10.1112,58.0744 11.1502,58.5614 C13.5382,59.6794 16.0092,60.8344 17.3142,63.0904 C18.6392,65.3804 18.3982,68.2484 18.1852,70.7784 C18.0842,71.9764 17.9192,73.8784 18.1702,74.5394 C18.3212,74.5904 18.7012,74.6164 19.5102,74.6164 L19.5112,74.6164 C20.2552,74.6164 21.1032,74.6084 22.0022,74.5324 C22.9952,74.4484 24.0222,74.3954 25.0382,74.3954 C26.2632,74.3954 28.0782,74.5194 29.6892,75.4504 C31.9462,76.7554 33.1012,79.2334 34.2202,81.6224 C34.7162,82.6844 35.6292,84.6414 36.1332,85.0074 C36.8042,84.9014 38.4052,83.7894 39.3772,83.1124 C41.4872,81.6454 43.8792,79.9814 46.5752,79.9814 C49.2712,79.9814 51.6632,81.6464 53.7732,83.1144 C54.7332,83.7824 56.3092,84.8794 56.9942,85.0074 C57.5582,84.5654 58.4442,82.6694 58.9302,81.6304 C60.0482,79.2414 61.2042,76.7724 63.4602,75.4664 C65.0722,74.5334 66.8872,74.4254 68.1142,74.4254 C69.1292,74.4254 70.1562,74.5124 71.1482,74.5954 C72.0472,74.6714 72.8962,74.7424 73.6402,74.7424 C74.4502,74.7424 74.8312,74.6524 74.9802,74.6034 C75.2322,73.9414 75.0672,71.9764 74.9662,70.7784 C74.7532,68.2474 74.5122,65.3804 75.8362,63.0914 C77.1412,60.8344 79.6112,59.6794 82.0002,58.5614 C83.0612,58.0654 85.0142,57.1514 85.3812,56.6484 C85.2752,55.9764 84.1602,54.3754 83.4842,53.4034" id="Fill-1" fill="#F9A51A"></path>
                <path d="M46.5752,79.3784 C28.0812,79.3784 13.0892,64.3864 13.0892,45.8924 C13.0892,27.3994 28.0812,12.4064 46.5752,12.4064 C65.0692,12.4064 80.0612,27.3994 80.0612,45.8924 C80.0612,64.3864 65.0692,79.3784 46.5752,79.3784 Z M83.4842,53.4034 C82.0162,51.2934 80.3512,48.9014 80.3512,46.2054 C80.3512,43.5094 82.0162,41.1174 83.4842,39.0074 C84.1532,38.0474 85.2492,36.4724 85.3772,35.7864 C84.9342,35.2224 83.0392,34.3364 82.0002,33.8504 C79.6112,32.7324 77.1412,31.5764 75.8362,29.3204 C74.5112,27.0304 74.7522,24.1624 74.9652,21.6334 C75.0662,20.4354 75.2312,18.4694 74.9802,17.8084 C74.8292,17.7584 74.4492,17.6674 73.6402,17.6674 C72.8952,17.6674 72.0472,17.7384 71.1482,17.8154 C70.1552,17.8994 69.1282,17.9844 68.1122,17.9844 C66.8872,17.9844 65.0722,17.8764 63.4612,16.9444 C61.2042,15.6404 60.0482,13.1694 58.9302,10.7804 C58.4342,9.7194 57.5212,7.7664 57.0172,7.3994 C56.3462,7.5054 54.7452,8.6194 53.7732,9.2964 C51.6632,10.7654 49.2712,12.4294 46.5752,12.4294 C43.8792,12.4294 41.4872,10.7654 39.3772,9.2964 C38.4152,8.6274 36.8382,7.5284 36.1572,7.4024 C35.5922,7.8454 34.7062,9.7404 34.2202,10.7804 C33.1012,13.1694 31.9462,15.6404 29.6902,16.9444 C28.0782,17.8774 26.2632,17.9854 25.0362,17.9854 C24.0212,17.9854 22.9942,17.8994 22.0012,17.8154 C21.1032,17.7394 20.2542,17.6684 19.5102,17.6684 C18.7002,17.6684 18.3192,17.7584 18.1692,17.8094 C17.9182,18.4704 18.0832,20.4364 18.1842,21.6334 C18.3972,24.1634 18.6382,27.0304 17.3142,29.3194 C16.0092,31.5764 13.5382,32.7324 11.1502,33.8504 C10.0892,34.3474 8.1362,35.2604 7.7692,35.7634 C7.8752,36.4354 8.9892,38.0354 9.6662,39.0074 C11.1342,41.1174 12.7992,43.5094 12.7992,46.2054 C12.7992,48.9014 11.1342,51.2934 9.6662,53.4034 C8.9972,54.3634 7.9012,55.9394 7.7732,56.6244 C8.2162,57.1894 10.1112,58.0744 11.1502,58.5614 C13.5382,59.6794 16.0092,60.8344 17.3142,63.0904 C18.6392,65.3804 18.3982,68.2484 18.1852,70.7784 C18.0842,71.9764 17.9192,73.8784 18.1702,74.5394 C18.3212,74.5904 18.7012,74.6164 19.5102,74.6164 L19.5112,74.6164 C20.2552,74.6164 21.1032,74.6084 22.0022,74.5324 C22.9952,74.4484 24.0222,74.3954 25.0382,74.3954 C26.2632,74.3954 28.0782,74.5194 29.6892,75.4504 C31.9462,76.7554 33.1012,79.2334 34.2202,81.6224 C34.7162,82.6844 35.6292,84.6414 36.1332,85.0074 C36.8042,84.9014 38.4052,83.7894 39.3772,83.1124 C41.4872,81.6454 43.8792,79.9814 46.5752,79.9814 C49.2712,79.9814 51.6632,81.6464 53.7732,83.1144 C54.7332,83.7824 56.3092,84.8794 56.9942,85.0074 C57.5582,84.5654 58.4442,82.6694 58.9302,81.6304 C60.0482,79.2414 61.2042,76.7724 63.4602,75.4664 C65.0722,74.5334 66.8872,74.4254 68.1142,74.4254 C69.1292,74.4254 70.1562,74.5124 71.1482,74.5954 C72.0472,74.6714 72.8962,74.7424 73.6402,74.7424 C74.4502,74.7424 74.8312,74.6524 74.9802,74.6034 C75.2322,73.9414 75.0672,71.9764 74.9662,70.7784 C74.7532,68.2474 74.5122,65.3804 75.8362,63.0914 C77.1412,60.8344 79.6112,59.6794 82.0002,58.5614 C83.0612,58.0654 85.0142,57.1514 85.3812,56.6484 C85.2752,55.9764 84.1602,54.3754 83.4842,53.4034 Z" id="Stroke-3" stroke="#F9A51A" stroke-width="2" stroke-linecap="round" stroke-linejoin="round"></path>
                <path d="M89.521,51.1802 C88.293,49.4172 87.024,47.5942 87.024,46.2032 C87.024,44.8142 88.293,42.9902 89.52,41.2262 C91.193,38.8232 92.923,36.3362 92.262,33.8642 C91.575,31.2922 88.767,29.9782 86.051,28.7082 C84.164,27.8262 82.211,26.9112 81.563,25.7912 C80.895,24.6372 81.078,22.4602 81.255,20.3562 C81.504,17.4002 81.761,14.3422 79.913,12.4932 C78.064,10.6462 75.007,10.9032 72.05,11.1512 C69.947,11.3282 67.769,11.5122 66.616,10.8442 C65.495,10.1962 64.582,8.2422 63.698,6.3552 C62.428,3.6402 61.114,0.8312 58.542,0.1452 C56.069,-0.5138 53.584,1.2142 51.181,2.8862 C49.417,4.1132 47.593,5.3822 46.203,5.3822 C44.813,5.3822 42.99,4.1132 41.227,2.8862 C38.822,1.2132 36.337,-0.5168 33.864,0.1452 C31.292,0.8312 29.979,3.6402 28.708,6.3552 C27.825,8.2422 26.912,10.1962 25.791,10.8442 C24.636,11.5112 22.459,11.3282 20.355,11.1522 C17.399,10.9042 14.343,10.6462 12.493,12.4932 C10.645,14.3432 10.902,17.4002 11.151,20.3562 C11.328,22.4612 11.511,24.6372 10.844,25.7912 C10.195,26.9112 8.243,27.8262 6.355,28.7082 C3.639,29.9792 0.831,31.2922 0.144,33.8642 C-0.517,36.3362 1.213,38.8232 2.886,41.2262 C4.113,42.9902 5.382,44.8142 5.382,46.2032 C5.382,47.5942 4.113,49.4172 2.886,51.1812 C1.213,53.5842 -0.517,56.0712 0.144,58.5432 C0.831,61.1162 3.639,62.4292 6.355,63.6992 C8.243,64.5822 10.195,65.4952 10.844,66.6162 C11.512,67.7712 11.329,69.9472 11.151,72.0522 C10.903,75.0082 10.645,78.0652 12.494,79.9132 C14.342,81.7622 17.399,81.5042 20.356,81.2562 C22.462,81.0782 24.639,80.8962 25.792,81.5632 C26.912,82.2122 27.826,84.1632 28.709,86.0522 C29.979,88.7672 31.292,91.5762 33.864,92.2632 C36.34,92.9242 38.823,91.1942 41.227,89.5212 C42.99,88.2942 44.813,87.0252 46.203,87.0252 C47.594,87.0252 49.417,88.2942 51.181,89.5212 C53.225,90.9442 55.328,92.4072 57.432,92.4072 C57.802,92.4072 58.172,92.3622 58.542,92.2632 C61.115,91.5762 62.428,88.7672 63.698,86.0522 C64.582,84.1632 65.495,82.2122 66.616,81.5632 C67.77,80.8962 69.947,81.0792 72.051,81.2552 C75.008,81.5042 78.065,81.7622 79.914,79.9132 C81.762,78.0652 81.504,75.0082 81.256,72.0522 C81.078,69.9472 80.895,67.7702 81.563,66.6162 C82.211,65.4942 84.164,64.5812 86.052,63.6992 C88.767,62.4282 91.575,61.1152 92.262,58.5432 C92.923,56.0712 91.194,53.5842 89.521,51.1802 Z" id="Stroke-5" stroke="#EC1C24" stroke-width="2" stroke-linecap="round" stroke-linejoin="round"></path>
                <path d="M49.1851,65.3482 C49.4411,66.3412 50.2861,66.9412 51.2881,66.6832 C52.3001,66.4232 52.7501,65.4902 52.4941,64.4952 C52.2411,63.5112 51.3951,62.9032 50.3831,63.1632 C49.3791,63.4212 48.9311,64.3632 49.1851,65.3482 M54.0901,64.0842 C54.5661,65.9362 53.5051,67.5892 51.6441,68.0682 C49.7851,68.5462 48.0661,67.6092 47.5891,65.7582 C47.1141,63.9082 48.1661,62.2552 50.0261,61.7782 C51.8861,61.2982 53.6141,62.2352 54.0901,64.0842" id="Fill-7" fill="#EC1C24"></path>
                <path d="M42.1636,66.311 C42.1106,66.731 42.4356,67.018 42.8556,67.071 L44.1266,67.23 L44.2936,65.894 L43.0226,65.735 C42.6026,65.682 42.2196,65.872 42.1636,66.311 L42.1636,66.311 Z M42.8626,62.167 L43.6466,64.391 L44.4676,64.494 L44.7306,62.402 L46.3376,62.602 L45.5576,68.832 L42.4376,68.442 C41.0556,68.269 40.3856,67.255 40.5306,66.097 C40.6656,65.014 41.4016,64.517 42.0066,64.385 L41.0216,61.936 L42.8626,62.167 Z" id="Fill-9" fill="#EC1C24"></path>
                <polygon id="Fill-11" fill="#EC1C24" points="40.4346 61.5239 38.1176 67.3629 36.6126 66.7649 38.9286 60.9269"></polygon>
                <path d="M36.3682,63.4107 C35.1662,65.0017 33.1962,65.0807 31.7022,63.9507 C30.5842,63.1047 30.3572,62.0017 30.4832,61.1177 L31.9902,61.3727 C31.9282,61.8447 32.0772,62.4407 32.5642,62.8097 C33.3832,63.4297 34.4372,63.2347 35.0562,62.4167 C35.6742,61.5987 35.5732,60.5317 34.7552,59.9137 C34.3882,59.6357 33.8992,59.5027 33.6052,59.5157 L33.3102,59.9057 L34.4352,60.7577 L33.5792,61.8897 L31.1622,60.0627 L32.6662,58.0747 C33.6552,57.8897 34.6722,58.0577 35.6172,58.7737 C37.1112,59.9027 37.5722,61.8197 36.3682,63.4107" id="Fill-13" fill="#EC1C24"></path>
                <polygon id="Fill-15" fill="#EC1C24" points="33.0303 56.4663 28.0373 60.2743 27.0553 58.9873 32.0483 55.1783"></polygon>
                <polygon id="Fill-17" fill="#EC1C24" points="29.7749 50.5659 27.3849 54.3759 30.7579 53.0309 31.3569 54.5339 25.5279 56.8579 24.9119 55.3119 27.1779 51.6729 23.9709 52.9519 23.3679 51.4399 29.1969 49.1159"></polygon>
                <path d="M24.4063,45.6362 L26.7683,46.4372 L26.7683,44.8372 L24.4063,45.6362 Z M29.0843,44.0842 L28.1803,44.3952 L28.1803,46.8702 L29.0833,47.1812 L29.0833,49.0172 L22.8053,46.6542 L22.8063,44.6202 L29.0843,42.2492 L29.0843,44.0842 Z" id="Fill-19" fill="#EC1C24"></path>
                <polygon id="Fill-21" fill="#EC1C24" points="29.3457 42.104 23.3927 40.108 23.9077 38.573 28.5227 40.121 29.3237 37.728 30.6617 38.177"></polygon>
                <path d="M43.5738,25.7417 C43.3678,24.7357 42.5548,24.0957 41.5418,24.3037 C40.5178,24.5127 40.0208,25.4207 40.2268,26.4267 C40.4308,27.4217 41.2458,28.0717 42.2688,27.8617 C43.2828,27.6547 43.7778,26.7367 43.5738,25.7417 M38.6138,26.7567 C38.2318,24.8847 39.3738,23.2857 41.2548,22.9017 C43.1348,22.5167 44.8048,23.5397 45.1868,25.4107 C45.5698,27.2827 44.4358,28.8787 42.5558,29.2627 C40.6748,29.6477 38.9968,28.6277 38.6138,26.7567" id="Fill-23" fill="#EC1C24"></path>
                <path d="M50.6534,25.1401 C50.7274,24.7221 50.4184,24.4191 50.0014,24.3451 L48.7404,24.1211 L48.5054,25.4471 L49.7664,25.6701 C50.1834,25.7441 50.5764,25.5761 50.6534,25.1401 L50.6534,25.1401 Z M49.7444,29.2431 L49.0744,26.9821 L48.2584,26.8371 L47.8894,28.9131 L46.2964,28.6311 L47.3924,22.4481 L50.4884,22.9971 C51.8614,23.2421 52.4784,24.2871 52.2744,25.4371 C52.0834,26.5121 51.3234,26.9701 50.7124,27.0721 L51.5704,29.5671 L49.7444,29.2431 Z" id="Fill-25" fill="#EC1C24"></path>
                <polygon id="Fill-27" fill="#EC1C24" points="52.1216 30.0005 54.7246 24.2845 56.1996 24.9565 53.5956 30.6715"></polygon>
                <path d="M56.2744,28.3179 C57.5564,26.7889 59.5284,26.8089 60.9624,28.0119 C62.0374,28.9139 62.2084,30.0269 62.0384,30.9029 L60.5464,30.5739 C60.6324,30.1049 60.5124,29.5019 60.0444,29.1079 C59.2574,28.4499 58.1944,28.5899 57.5364,29.3759 C56.8774,30.1619 56.9244,31.2329 57.7104,31.8909 C58.0644,32.1879 58.5454,32.3449 58.8384,32.3469 L59.1534,31.9709 L58.0714,31.0649 L58.9844,29.9759 L61.3064,31.9219 L59.7044,33.8329 C58.7084,33.9669 57.7004,33.7489 56.7914,32.9869 C55.3574,31.7849 54.9924,29.8459 56.2744,28.3179" id="Fill-29" fill="#EC1C24"></path>
                <polygon id="Fill-31" fill="#EC1C24" points="59.2593 35.4233 64.4383 31.8693 65.3543 33.2053 60.1753 36.7583"></polygon>
                <polygon id="Fill-33" fill="#EC1C24" points="62.2251 41.4898 64.8041 37.8018 61.3661 38.9778 60.8411 37.4458 66.7831 35.4138 67.3231 36.9908 64.8751 40.5128 68.1451 39.3958 68.6731 40.9368 62.7301 42.9688"></polygon>
                <path d="M67.3301,46.6792 L65.0121,45.7622 L64.9311,47.3592 L67.3301,46.6792 Z M62.5831,47.9932 L63.5001,47.7302 L63.6241,45.2582 L62.7391,44.9032 L62.8311,43.0712 L68.9781,45.7452 L68.8761,47.7742 L62.4901,49.8252 L62.5831,47.9932 Z" id="Fill-35" fill="#EC1C24"></path>
                <polygon id="Fill-37" fill="#EC1C24" points="62.2212 49.9536 68.0692 52.2416 67.4782 53.7506 62.9472 51.9756 62.0262 54.3256 60.7112 53.8106"></polygon>
                <path d="M66.6431,66.3091 L25.7621,25.4271" id="Stroke-39" stroke="#F9A51A" stroke-width="2" stroke-linecap="round" stroke-linejoin="round"></path>
                <path d="M55.9673,44.4898 L47.5803,36.1028" id="Stroke-41" stroke="#F9A51A" stroke-width="2" stroke-linecap="round" stroke-linejoin="round"></path>
                <path d="M42.8203,53.5132 L38.5563,49.2502" id="Stroke-43" stroke="#F9A51A" stroke-width="2" stroke-linecap="round" stroke-linejoin="round"></path>
                <path d="M69.8794,29.3843 C70.6384,30.4753 71.3234,31.6203 71.9294,32.8143" id="Stroke-45" stroke="#F9A51A" stroke-width="2" stroke-linecap="round" stroke-linejoin="round"></path>
                <path d="M75.1109,45.8696 C75.1109,61.8346 62.1689,74.7766 46.2029,74.7766 C30.2379,74.7766 17.2959,61.8346 17.2959,45.8696 C17.2959,29.9036 30.2379,16.9616 46.2029,16.9616 C49.9139,16.9616 53.4619,17.6606 56.7209,18.9336" id="Stroke-47" stroke="#F9A51A" stroke-width="2" stroke-linecap="round" stroke-linejoin="round"></path>
            </g>
        </g>
    </g>
</svg>