<?xml version="1.0" encoding="utf-8"?>
<!-- Generator: Adobe Illustrator 23.0.1, SVG Export Plug-In . SVG Version: 6.00 Build 0)  -->
<svg version="1.1"
	 id="svg43" inkscape:version="0.92.4 (5da689c313, 2019-01-14)" sodipodi:docname="phone.svg" xmlns:cc="http://creativecommons.org/ns#" xmlns:dc="http://purl.org/dc/elements/1.1/" xmlns:inkscape="http://www.inkscape.org/namespaces/inkscape" xmlns:rdf="http://www.w3.org/1999/02/22-rdf-syntax-ns#" xmlns:sodipodi="http://sodipodi.sourceforge.net/DTD/sodipodi-0.dtd" xmlns:svg="http://www.w3.org/2000/svg"
	 xmlns="http://www.w3.org/2000/svg" xmlns:xlink="http://www.w3.org/1999/xlink" x="0px" y="0px" viewBox="0 0 1423 1920"
	 style="enable-background:new 0 0 1423 1920;" xml:space="preserve">
<style type="text/css">
	.st0{fill:#E57C56;}
</style>
<sodipodi:namedview  bordercolor="#666666" borderopacity="1" gridtolerance="10" guidetolerance="10" id="namedview45" inkscape:current-layer="svg43" inkscape:cx="711.5" inkscape:cy="960" inkscape:pageopacity="0" inkscape:pageshadow="2" inkscape:window-height="1017" inkscape:window-maximized="1" inkscape:window-width="1920" inkscape:window-x="-8" inkscape:window-y="-8" inkscape:zoom="0.34766083" objecttolerance="10" pagecolor="#ffffff" showgrid="false">
	</sodipodi:namedview>
<path id="path53" inkscape:connector-curvature="0" class="st0" d="M913.4,1838.9c-1.9-0.2-8.3-0.8-14.3-1.4
	c-67.7-6.3-144.5-37.9-216.6-89.3c-50.4-35.9-89.6-70.6-141.7-125.6c-59.4-62.7-110.2-126.2-172.1-215.6
	c-32.5-46.9-91.9-138.3-107.2-165c-30.5-53.2-55.6-112.4-78.5-184.5c-41.5-130.8-69.5-290.4-81.4-464.5
	c-4.7-68.7-7.4-154.8-5.8-183.5c4.2-71.8,22.4-127.8,58-177.3c52.8-73.6,143.4-123.1,256.2-140c14.4-2.2,42.6-4.8,43.3-4
	c0.4,0.5,14.6,506.8,14.2,507.1c-0.2,0.1-4.2,2.3-8.9,4.9c-39.5,21.3-65,53.1-74.9,93.4c-7.1,28.8-6.7,58.7,1.2,92.5
	c4,17,7.3,25.2,27.9,67.9c142.8,296.5,240.6,484.2,276.8,531.1c24.4,31.6,58.5,47.8,96.6,45.8c23.6-1.2,44.4-7.1,68.8-19.5
	c7.4-3.7,13.9-6.6,14.5-6.3c1.6,0.7,380.7,314.7,380.7,315.4c0,0.3-5.6,4.1-12.3,8.5c-51.3,32.8-113.6,61.5-185,85.1
	c-38.1,12.6-69.3,21.1-84.2,23.1C958.8,1838.5,920.6,1839.7,913.4,1838.9L913.4,1838.9z M1098.4,1532.6
	c-107-89.4-195.2-163.3-196-164.1c-1.4-1.4,1.6-3.3,49.9-30.1c28.3-15.7,52.7-29,54.4-29.5c7.1-2.2,26.5,2.2,42.1,9.7
	c17.6,8.4,33.4,20.3,111.2,83.5c63.4,51.5,139.3,114.6,145.4,120.9c14.7,15.1,23.6,35.9,22.4,52.1c-0.5,7.3-6,27.3-20.7,75.4
	c-5.3,17.3-10.4,34.2-11.3,37.4s-2,6.2-2.3,6.6C1293.2,1694.9,1205.4,1622,1098.4,1532.6L1098.4,1532.6z M515.4,584.9
	c-4.6-2.2-5.9-5.2-7.1-16.2c-3.8-35.4-7.1-142.7-10-320.7c-2.4-153.6-2.5-159.5-1.5-160.2c2-1.3,15.7-1.7,22.8-0.6
	c21.2,3.2,43.3,12.1,65.3,26.3c20.6,13.3,34.9,27.9,40.8,41.6l2.3,5.2l2,151.8c1.1,83.5,2.2,162.1,2.4,174.8l0.4,23l-7.2,9.5
	c-3.9,5.2-12,15-18,21.9c-12.5,14.2-21.9,21.7-39.2,30.8C543.8,584.9,525.1,589.5,515.4,584.9z"/>
</svg>
