<?xml version="1.0" encoding="utf-8"?>
<!-- Generator: Adobe Illustrator 23.1.0, SVG Export Plug-In . SVG Version: 6.00 Build 0)  -->
<svg version="1.1" id="Layer_1" xmlns="http://www.w3.org/2000/svg" xmlns:xlink="http://www.w3.org/1999/xlink" x="0px" y="0px"
	 viewBox="0 0 16.6 16.6" style="enable-background:new 0 0 16.6 16.6;" xml:space="preserve">
<style type="text/css">
	.st0{fill:#EB5A0C;}
</style>
<g>
	<path class="st0" d="M12.2,7.5H9.4c-0.2,0-0.3-0.2-0.3-0.3V4.3C9.1,4.1,8.9,4,8.8,4H7.8C7.7,4,7.5,4.1,7.5,4.3v2.9
		c0,0.2-0.2,0.3-0.3,0.3H4.4c-0.2,0-0.3,0.2-0.3,0.3v0.8C4.1,8.9,4.3,9,4.4,9h2.7c0.2,0,0.3,0.2,0.3,0.3v2.9c0,0.2,0.2,0.3,0.3,0.3
		h0.9c0.2,0,0.3-0.2,0.3-0.3V9.4C9.1,9.2,9.3,9,9.4,9h2.7c0.2,0,0.3-0.2,0.3-0.3V7.9C12.5,7.7,12.3,7.5,12.2,7.5z"/>
	<path class="st0" d="M8.3,0C3.7,0,0,3.7,0,8.3c0,4.6,3.7,8.3,8.3,8.3s8.3-3.7,8.3-8.3C16.6,3.7,12.9,0,8.3,0z M8.3,15.6
		c-4,0-7.3-3.3-7.3-7.3S4.3,1,8.3,1c4,0,7.3,3.3,7.3,7.3S12.3,15.6,8.3,15.6z"/>
</g>
</svg>
