<?xml version="1.0" encoding="UTF-8"?>
<svg width="85px" height="87px" viewBox="0 0 85 87" version="1.1" xmlns="http://www.w3.org/2000/svg" xmlns:xlink="http://www.w3.org/1999/xlink">
    <!-- Generator: sketchtool 47 (45396) - http://www.bohemiancoding.com/sketch -->
    <title>5E2F296E-8AEC-4395-84A5-A3A91843E64F</title>
    <desc>Created with sketchtool.</desc>
    <defs></defs>
    <g id="Symbols" stroke="none" stroke-width="1" fill="none" fill-rule="evenodd">
        <g id="perspectiva" transform="translate(-653.000000, -8.000000)">
            <g id="Page-1" transform="translate(654.000000, 8.000000)">
                <path d="M12.9015,67.0669 L17.9145,67.0669" id="Stroke-1" stroke="#EC1C24" stroke-width="2" stroke-linecap="round" stroke-linejoin="round"></path>
                <path d="M25.7975,67.0669 L30.8105,67.0669" id="Stroke-2" stroke="#EC1C24" stroke-width="2" stroke-linecap="round" stroke-linejoin="round"></path>
                <path d="M38.6935,67.0669 L43.7065,67.0669" id="Stroke-3" stroke="#EC1C24" stroke-width="2" stroke-linecap="round" stroke-linejoin="round"></path>
                <path d="M51.5895,67.0669 L56.6025,67.0669" id="Stroke-4" stroke="#EC1C24" stroke-width="2" stroke-linecap="round" stroke-linejoin="round"></path>
                <path d="M64.4855,67.0669 L69.4985,67.0669" id="Stroke-5" stroke="#EC1C24" stroke-width="2" stroke-linecap="round" stroke-linejoin="round"></path>
                <path d="M12.9015,35.2466 L17.9145,35.2466" id="Stroke-6" stroke="#EC1C24" stroke-width="2" stroke-linecap="round" stroke-linejoin="round"></path>
                <path d="M25.7975,35.2466 L30.8105,35.2466" id="Stroke-7" stroke="#EC1C24" stroke-width="2" stroke-linecap="round" stroke-linejoin="round"></path>
                <path d="M38.6935,35.2466 L43.7065,35.2466" id="Stroke-8" stroke="#EC1C24" stroke-width="2" stroke-linecap="round" stroke-linejoin="round"></path>
                <path d="M51.5895,35.2466 L56.6025,35.2466" id="Stroke-9" stroke="#EC1C24" stroke-width="2" stroke-linecap="round" stroke-linejoin="round"></path>
                <path d="M64.4855,35.2466 L69.4985,35.2466" id="Stroke-10" stroke="#EC1C24" stroke-width="2" stroke-linecap="round" stroke-linejoin="round"></path>
                <polygon id="Fill-11" fill="#F9A51A" points="13.13 48.187 17.686 48.187 17.686 43.631 13.13 43.631"></polygon>
                <polygon id="Stroke-12" stroke="#F9A51A" stroke-width="2" stroke-linecap="round" stroke-linejoin="round" points="13.13 48.187 17.686 48.187 17.686 43.631 13.13 43.631"></polygon>
                <polygon id="Fill-13" fill="#F9A51A" points="13.13 59.125 17.686 59.125 17.686 54.569 13.13 54.569"></polygon>
                <polygon id="Stroke-14" stroke="#F9A51A" stroke-width="2" stroke-linecap="round" stroke-linejoin="round" points="13.13 59.125 17.686 59.125 17.686 54.569 13.13 54.569"></polygon>
                <polygon id="Fill-15" fill="#F9A51A" points="26.026 48.187 30.582 48.187 30.582 43.631 26.026 43.631"></polygon>
                <polygon id="Stroke-16" stroke="#F9A51A" stroke-width="2" stroke-linecap="round" stroke-linejoin="round" points="26.026 48.187 30.582 48.187 30.582 43.631 26.026 43.631"></polygon>
                <polygon id="Fill-17" fill="#F9A51A" points="26.026 59.125 30.582 59.125 30.582 54.569 26.026 54.569"></polygon>
                <polygon id="Stroke-18" stroke="#F9A51A" stroke-width="2" stroke-linecap="round" stroke-linejoin="round" points="26.026 59.125 30.582 59.125 30.582 54.569 26.026 54.569"></polygon>
                <polygon id="Fill-19" fill="#F9A51A" points="39.15 48.187 43.706 48.187 43.706 43.631 39.15 43.631"></polygon>
                <polygon id="Stroke-20" stroke="#F9A51A" stroke-width="2" stroke-linecap="round" stroke-linejoin="round" points="39.15 48.187 43.706 48.187 43.706 43.631 39.15 43.631"></polygon>
                <polygon id="Fill-21" fill="#F9A51A" points="39.15 59.125 43.706 59.125 43.706 54.569 39.15 54.569"></polygon>
                <polygon id="Stroke-22" stroke="#F9A51A" stroke-width="2" stroke-linecap="round" stroke-linejoin="round" points="39.15 59.125 43.706 59.125 43.706 54.569 39.15 54.569"></polygon>
                <polygon id="Fill-23" fill="#F9A51A" points="51.818 48.187 56.374 48.187 56.374 43.631 51.818 43.631"></polygon>
                <polygon id="Stroke-24" stroke="#F9A51A" stroke-width="2" stroke-linecap="round" stroke-linejoin="round" points="51.818 48.187 56.374 48.187 56.374 43.631 51.818 43.631"></polygon>
                <polygon id="Fill-25" fill="#F9A51A" points="51.818 59.125 56.374 59.125 56.374 54.569 51.818 54.569"></polygon>
                <polygon id="Stroke-26" stroke="#F9A51A" stroke-width="2" stroke-linecap="round" stroke-linejoin="round" points="51.818 59.125 56.374 59.125 56.374 54.569 51.818 54.569"></polygon>
                <polygon id="Fill-27" fill="#F9A51A" points="64.714 48.187 69.27 48.187 69.27 43.631 64.714 43.631"></polygon>
                <polygon id="Stroke-28" stroke="#F9A51A" stroke-width="2" stroke-linecap="round" stroke-linejoin="round" points="64.714 48.187 69.27 48.187 69.27 43.631 64.714 43.631"></polygon>
                <polygon id="Fill-29" fill="#F9A51A" points="64.714 59.125 69.27 59.125 69.27 54.569 64.714 54.569"></polygon>
                <polygon id="Stroke-30" stroke="#F9A51A" stroke-width="2" stroke-linecap="round" stroke-linejoin="round" points="64.714 59.125 69.27 59.125 69.27 54.569 64.714 54.569"></polygon>
                <g id="Group-57" transform="translate(0.000000, 0.345000)">
                    <path d="M25.652,85.0002 L54.877,84.9802" id="Stroke-31" stroke="#F9A51A" stroke-width="2" stroke-linecap="round" stroke-linejoin="round"></path>
                    <path d="M61.4205,84.9768 L63.7485,84.9758" id="Stroke-33" stroke="#F9A51A" stroke-width="2" stroke-linecap="round" stroke-linejoin="round"></path>
                    <path d="M72.7902,77.0549 L9.6092,77.0549 C4.3022,77.0549 0.0002,72.7519 0.0002,67.4459 L0.0002,24.4539 L82.3992,24.4539 L82.3992,67.4459 C82.3992,72.7519 78.0972,77.0549 72.7902,77.0549 Z" id="Stroke-35" stroke="#EC1C24" stroke-width="2" stroke-linecap="round" stroke-linejoin="round"></path>
                    <path d="M73.2247,7.008 L79.1997,7.008 C80.9667,7.008 82.3997,8.441 82.3997,10.208 L82.3997,20.806" id="Stroke-37" stroke="#EC1C24" stroke-width="2" stroke-linecap="round" stroke-linejoin="round"></path>
                    <path d="M0.0001,20.8059 L0.0001,10.2079 C0.0001,8.4409 1.4331,7.0079 3.2001,7.0079 L8.8121,7.0079 L74.2361,7.0079" id="Stroke-39" stroke="#EC1C24" stroke-width="2" stroke-linecap="round" stroke-linejoin="round"></path>
                    <path d="M12.1002,15.1994 L12.1002,15.1994 C10.6022,15.1994 9.3882,13.9854 9.3882,12.4884 L9.3882,3.3664 C9.3882,1.8694 10.6022,0.6544 12.1002,0.6544 C13.5982,0.6544 14.8112,1.8694 14.8112,3.3664 L14.8112,12.4884 C14.8112,13.9854 13.5982,15.1994 12.1002,15.1994" id="Fill-41" fill="#FFFFFF"></path>
                    <path d="M12.1002,15.1994 L12.1002,15.1994 C10.6022,15.1994 9.3882,13.9854 9.3882,12.4884 L9.3882,3.3664 C9.3882,1.8694 10.6022,0.6544 12.1002,0.6544 C13.5982,0.6544 14.8112,1.8694 14.8112,3.3664 L14.8112,12.4884 C14.8112,13.9854 13.5982,15.1994 12.1002,15.1994 Z" id="Stroke-43" stroke="#EC1C24" stroke-width="2" stroke-linecap="round" stroke-linejoin="round"></path>
                    <path d="M50.7296,15.1994 L50.7296,15.1994 C49.2316,15.1994 48.0176,13.9854 48.0176,12.4884 L48.0176,3.3664 C48.0176,1.8694 49.2316,0.6544 50.7296,0.6544 C52.2276,0.6544 53.4416,1.8694 53.4416,3.3664 L53.4416,12.4884 C53.4416,13.9854 52.2276,15.1994 50.7296,15.1994" id="Fill-45" fill="#FFFFFF"></path>
                    <path d="M50.7296,15.1994 L50.7296,15.1994 C49.2316,15.1994 48.0176,13.9854 48.0176,12.4884 L48.0176,3.3664 C48.0176,1.8694 49.2316,0.6544 50.7296,0.6544 C52.2276,0.6544 53.4416,1.8694 53.4416,3.3664 L53.4416,12.4884 C53.4416,13.9854 52.2276,15.1994 50.7296,15.1994 Z" id="Stroke-47" stroke="#EC1C24" stroke-width="2" stroke-linecap="round" stroke-linejoin="round"></path>
                    <path d="M70.0446,15.1994 L70.0446,15.1994 C68.5466,15.1994 67.3326,13.9854 67.3326,12.4884 L67.3326,3.3664 C67.3326,1.8694 68.5466,0.6544 70.0446,0.6544 C71.5426,0.6544 72.7556,1.8694 72.7556,3.3664 L72.7556,12.4884 C72.7556,13.9854 71.5426,15.1994 70.0446,15.1994" id="Fill-49" fill="#FFFFFF"></path>
                    <path d="M70.0446,15.1994 L70.0446,15.1994 C68.5466,15.1994 67.3326,13.9854 67.3326,12.4884 L67.3326,3.3664 C67.3326,1.8694 68.5466,0.6544 70.0446,0.6544 C71.5426,0.6544 72.7556,1.8694 72.7556,3.3664 L72.7556,12.4884 C72.7556,13.9854 71.5426,15.1994 70.0446,15.1994 Z" id="Stroke-51" stroke="#EC1C24" stroke-width="2" stroke-linecap="round" stroke-linejoin="round"></path>
                    <path d="M31.4147,15.1994 L31.4147,15.1994 C29.9167,15.1994 28.7027,13.9854 28.7027,12.4884 L28.7027,3.3664 C28.7027,1.8694 29.9167,0.6544 31.4147,0.6544 C32.9127,0.6544 34.1267,1.8694 34.1267,3.3664 L34.1267,12.4884 C34.1267,13.9854 32.9127,15.1994 31.4147,15.1994" id="Fill-53" fill="#FFFFFF"></path>
                    <path d="M31.4147,15.1994 L31.4147,15.1994 C29.9167,15.1994 28.7027,13.9854 28.7027,12.4884 L28.7027,3.3664 C28.7027,1.8694 29.9167,0.6544 31.4147,0.6544 C32.9127,0.6544 34.1267,1.8694 34.1267,3.3664 L34.1267,12.4884 C34.1267,13.9854 32.9127,15.1994 31.4147,15.1994 Z" id="Stroke-55" stroke="#EC1C24" stroke-width="2" stroke-linecap="round" stroke-linejoin="round"></path>
                </g>
            </g>
        </g>
    </g>
</svg>