<?xml version="1.0" encoding="UTF-8"?>
<svg width="14px" height="13px" viewBox="0 0 14 13" version="1.1" xmlns="http://www.w3.org/2000/svg" xmlns:xlink="http://www.w3.org/1999/xlink">
    <!-- Generator: Sketch 47 (45396) - http://www.bohemiancoding.com/sketch -->
    <title>Star Copy 4</title>
    <desc>Created with Sketch.</desc>
    <defs></defs>
    <g id="Page-1" stroke="none" stroke-width="1" fill="none" fill-rule="evenodd">
        <g id="f_menu" transform="translate(-937.000000, -743.000000)" stroke="#F6A600">
            <g id="Group-6" transform="translate(869.000000, 743.000000)">
                <path d="M71.396432,12.0549797 L74.5879459,10.0913264 L77.7794598,12.0549797 C77.8929323,12.1247963 78.0295763,12.1464386 78.1590696,12.115104 C78.4274659,12.0501578 78.5923949,11.7799303 78.5274487,11.511534 L77.6461355,7.86942162 L80.4999128,5.44091376 C80.6013773,5.35456948 80.6641856,5.23130122 80.6744003,5.09846283 C80.6955718,4.82313325 80.489536,4.58277159 80.2142064,4.56160004 L76.478011,4.27430412 L75.0502285,0.809750423 C74.9994644,0.686570102 74.9016382,0.588743856 74.7784579,0.537979825 C74.5231462,0.432762962 74.2308802,0.554438803 74.1256633,0.809750423 L72.6978808,4.27430412 L68.9616853,4.56160004 C68.8288469,4.57181469 68.7055787,4.634623 68.6192344,4.7360875 C68.4402716,4.94638948 68.465677,5.26195095 68.675979,5.44091376 L71.5297563,7.86942162 L70.648443,11.511534 C70.6171084,11.6410273 70.6387507,11.7776712 70.7085673,11.8911437 C70.8532738,12.1263344 71.1612413,12.1996862 71.396432,12.0549797 Z" id="Star-Copy-4"></path>
            </g>
        </g>
    </g>
</svg>