<?xml version="1.0" encoding="utf-8"?>
<!-- Generator: Adobe Illustrator 23.1.0, SVG Export Plug-In . SVG Version: 6.00 Build 0)  -->
<svg version="1.1" id="Layer_1" xmlns="http://www.w3.org/2000/svg" xmlns:xlink="http://www.w3.org/1999/xlink" x="0px" y="0px"
	 viewBox="0 0 25 28.5" style="enable-background:new 0 0 25 28.5;" xml:space="preserve">
<style type="text/css">
	.st0{fill:#F7A907;}
</style>
<g>
	<path class="st0" d="M12.5,16c3.86,0,7-3.59,7-8s-3.14-8-7-8s-7,3.59-7,8S8.64,16,12.5,16z M12.5,2c2.76,0,5,2.69,5,6s-2.24,6-5,6
		s-5-2.69-5-6S9.74,2,12.5,2z"/>
	<path class="st0" d="M20,14.95v2.11c1.76,0.75,3,2.49,3,4.52c0,2.71-2.2,4.91-4.91,4.91H6.91C4.2,26.5,2,24.3,2,21.59
		c0-2.03,1.24-3.78,3-4.52v-2.11c-2.88,0.83-5,3.49-5,6.64c0,3.81,3.1,6.91,6.91,6.91h11.18c3.81,0,6.91-3.1,6.91-6.91
		C25,18.44,22.88,15.78,20,14.95z"/>
</g>
</svg>
